<?xml version="1.0" encoding="utf-8"?>
<!-- Generator: Adobe Illustrator 16.0.0, SVG Export Plug-In . SVG Version: 6.00 Build 0)  -->
<!DOCTYPE svg PUBLIC "-//W3C//DTD SVG 1.1//EN" "http://www.w3.org/Graphics/SVG/1.1/DTD/svg11.dtd">
<svg version="1.1" id="レイヤー_1" xmlns="http://www.w3.org/2000/svg" xmlns:xlink="http://www.w3.org/1999/xlink" x="0px"
	 y="0px" width="1327.786px" height="306.36px" viewBox="-933.606 608.194 1327.786 306.36"
	 enable-background="new -933.606 608.194 1327.786 306.36" xml:space="preserve">
<g>
	<g>
		<g>
			<path fill="#FFFFFF" d="M202.728,724.481h-37.806l-19.085,48.417c-1.322,3.51-1.998,5.652-1.998,6.457
				c0,1.928,1.431,2.884,4.289,2.884v1.352h-19.156v-1.352c2.571,0,4.716-0.624,6.471-1.874c1.749-1.252,3.681-4.493,5.768-9.739
				l46.223-117.355h2.322l45.967,113.312c1.11,2.756,1.845,4.466,3.484,8.269c2.214,4.988,5.897,7.389,10.688,7.389v1.352h-29.912
				v-1.352c2.737,0,4.147-1.084,4.108-3.228c-0.031-2.184-1.908-6.521-2.871-8.985L202.728,724.481z M166.383,720.78h34.839
				l-17.688-43.607L166.383,720.78z"/>
			<path fill="#FFFFFF" d="M-101.681,724.481H-139.5l-19.064,48.417c-1.361,3.51-2.017,5.652-2.017,6.457
				c0,1.928,1.41,2.884,4.268,2.884v1.352h-19.136v-1.352c2.552,0,4.714-0.624,6.469-1.874c1.749-1.252,3.664-4.493,5.769-9.739
				l46.222-117.355h2.337l45.954,113.312c1.11,2.756,1.825,4.466,3.504,8.269c2.174,4.988,5.875,7.389,10.648,7.389v1.352H-84.44
				v-1.352c2.737,0,4.129-1.084,4.09-3.228c-0.031-2.184-1.888-6.521-2.872-8.985L-101.681,724.481z M-138.057,720.78h34.876
				l-17.687-43.607L-138.057,720.78z"/>
			<path fill="#FFFFFF" d="M83.305,654.956h23.016v1.339c-6.79,0.346-13.292,6.011-13.24,11.461
				c0.018,1.455,0.159,2.719,0.516,5.271l13.348,97.46c0.824,4.85,1.731,7.95,2.75,9.29c1.021,1.354,3.127,2.171,6.324,2.463v1.352
				H87.134v-1.352c3.822,0.114,5.716-1.722,5.716-5.538c0-0.855-0.197-2.539-0.535-5.091l-12.954-94.513L32.98,783.591h-0.862
				l-46.465-106.315l-13.119,95.036c-0.229,1.443-0.339,3.088-0.339,4.926c0,3.343,1.935,5.002,5.787,5.002v1.352h-19.486v-1.352
				c2.96,0,4.856-0.356,5.679-1.07c0.843-0.716,1.5-1.877,1.965-3.473c0.446-1.607,0.786-3.381,1.034-5.385l14.65-103.944
				c-2.354-5.717-5.391-9.174-7.753-10.31c-2.354-1.176-4.644-1.763-6.82-1.763v-1.339h24.814l45.522,104.95L83.305,654.956z"/>
			<path fill="#FFFFFF" d="M365.988,624.201c0,0,6.827-2.72,9.864-6.305c3.217-3.829,4.199-7.084,4.199-7.084h2.781
				c0,2.858,0,21.747,0,26.532v146.058h-1.728L280.07,675.858v95.112c0,3.024,0.23,5.283,0.678,6.726
				c0.465,1.455,1.128,2.438,1.964,2.975c0.842,0.523,3.005,1.033,6.411,1.568v1.352h-24.488v-1.352
				c4.337,0,7.057-0.778,8.129-2.347c1.052-1.583,1.587-5.335,1.587-11.256v-86.945c0-7.646-2.091-13.081-5.11-17.368
				c-2.233-3.191-8.167-8.014-15.762-8.028v-1.339h27.285l96.693,102.936V636.146c0-4.901-0.018-7.976-2.538-9.533
				c-1.734-1.033-6.292-1.085-8.932-1.085V624.201z"/>
		</g>
		<g>
			<path fill="#FFFFFF" d="M-810.863,659.308l4.805,13.743h-1.192c-12.494-12.403-27.196-18.58-44.098-18.58
				c-17.541,0-31.732,5.195-42.541,15.608c-10.821,10.388-15.097,23.518-15.097,38.27c0,9.126,1.27,19.067,6.074,30.911
				c4.792,11.867,12.366,21.604,22.729,29.249c10.363,7.644,22.907,11.446,37.627,11.446c9.667,0,19.136-1.556,28.427-4.683
				c9.271-3.14,16.181-7.325,20.737-12.609l1.289,0.345l-9.002,14.001c-14.581,3.215-24.03,5.091-28.376,5.677
				c-4.339,0.588-10.145,0.905-17.432,0.905c-26.979,0-46.274-6.265-57.906-18.771c-11.632-12.507-17.438-27.476-17.438-44.896
				c0-11.766,2.987-23.099,8.952-33.985c5.966-10.834,14.593-19.409,25.849-25.675c11.243-6.279,24.107-9.432,38.559-9.432
				c7.235,0,13.489,0.689,18.759,1.991c5.271,1.341,9.667,2.693,13.164,4.108l5.756,2.209
				C-811.041,659.18-810.914,659.256-810.863,659.308z"/>
			<path fill="#FFFFFF" d="M-778.505,781.513v-1.289c3.982,0,6.591-0.753,7.772-2.258c1.18-1.507,1.786-4.123,1.786-7.773V664.935
				c0-3.7-0.178-6.432-1.41-8.053c-1.129-1.543-3.739-2.564-8.417-2.666v-1.303h34.354v1.303c-3.196,0-5.41,0.396-6.699,1.225
				c-1.271,0.805-2.105,1.774-2.501,2.872c-0.428,1.098-0.607,3.611-0.607,7.505v90.197c0,7.734,1.838,13.184,5.559,16.374
				c3.713,3.164,10.056,4.734,19.059,4.734h15.672c7.523,0,13.061-1.863,16.577-5.578c3.503-3.712,5.468-10.719,5.883-21.017h1.283
				v30.984H-778.505z"/>
			<path fill="#FFFFFF" d="M-558.285,781.513h-24.285V761.63c-12.417,13.77-27.189,20.673-44.398,20.673
				c-12.755,0-22.881-3.599-30.353-10.744c-7.504-7.146-11.237-17.037-11.237-29.658v-76.966c0-4.657-0.555-7.593-1.678-8.856
				c-1.129-1.237-3.732-1.862-7.88-1.862v-1.303h34.105v1.303c-3.592,0-6.126,0.574-7.613,1.709
				c-1.479,1.111-2.213,3.817-2.213,8.041v70.546c0,14.766,3.484,25.293,10.419,31.609c6.949,6.292,14.842,9.444,23.724,9.444
				c13.954,0,26.333-6.189,37.124-18.58v-87.073c0-7.606-0.658-12.136-2.017-13.566c-1.34-1.429-3.433-2.13-6.304-2.13h-1.219
				v-1.303h33.825v1.303c-4.199,0.229-6.847,0.932-7.938,2.094c-1.085,1.172-1.621,3.368-1.621,6.621v104.723
				c0,4.135,0.21,6.827,0.606,8.128c0.428,1.278,1.25,2.338,2.501,3.18c1.25,0.841,3.394,1.263,6.451,1.263V781.513z"/>
			<path fill="#FFFFFF" d="M-541.082,654.216v-1.303h33.301c9.718,0,16.616,0.408,20.693,1.226
				c4.033,0.817,7.932,2.374,11.645,4.684c3.701,2.283,6.86,5.59,9.47,9.916c2.609,4.34,3.931,9.265,3.931,14.79
				c0,10.875-5.322,19.743-16.01,26.021c9.258,1.584,16.156,5.119,20.833,11.205c4.703,6.075,7.038,13.465,7.038,22.129
				c0,8.116-1.997,15.479-6.036,22.116c-4.001,6.648-8.613,11.064-13.776,13.233c-5.182,2.195-12.417,3.28-21.74,3.28h-49.349
				v-1.289c3.86,0,6.342-0.804,7.433-2.388c1.073-1.607,1.609-5.703,1.609-12.302v-96.848c0-4.657-0.128-7.821-0.396-9.507
				c-0.25-1.698-1.104-2.935-2.553-3.739C-536.437,654.611-538.472,654.216-541.082,654.216z M-517.32,655.49v56.56h15.595
				c10.579,0,17.598-3.023,21.069-9.098c3.426-6.036,5.162-12.085,5.162-18.084c0-6.481-1.34-11.881-4.001-16.221
				c-2.667-4.338-6.579-7.604-11.721-9.825c-5.15-2.208-12.704-3.332-22.71-3.332H-517.32z M-507.315,714.642h-10.005v40.749
				c0,5.639,0.217,9.315,0.664,10.987c0.427,1.684,1.41,3.472,2.948,5.32c1.531,1.876,4.02,3.369,7.427,4.505
				c3.433,1.123,8.365,1.698,14.829,1.698c9.974,0,17.03-2.324,21.158-6.931c4.11-4.632,6.177-11.483,6.177-20.559
				c0-9.432-1.838-17.1-5.5-23.047c-3.644-5.921-8.308-8.908-12.793-10.555C-486.909,715.14-495.057,714.642-507.315,714.642z"/>
		</g>
		<g>
			<path fill="#FFFFFF" d="M-396.328,630.377v173.252h173.226V630.377H-396.328z M-229.534,797.185h-160.349v-160.35h160.349
				V797.185z"/>
			<path fill="#FFFFFF" d="M-384.752,641.939v150.126h150.114V641.939H-384.752z M-309.714,791.978
				c-0.428-68.402-6.54-74.554-74.681-74.976c68.141-0.42,74.253-6.571,74.681-74.961c0.428,68.39,6.573,74.541,74.719,74.961
				C-303.142,717.424-309.287,723.575-309.714,791.978z"/>
		</g>
	</g>
	<g>
		<path fill="#FFFFFF" d="M-702.236,850.757v15.697h-1.25c-0.396-3.012-1.11-5.412-2.144-7.185
			c-1.034-1.763-2.501-3.166-4.428-4.238c-1.934-1.059-3.919-1.568-5.973-1.568c-2.284,0-4.198,0.715-5.717,2.117
			c-1.532,1.404-2.285,3.013-2.285,4.811c0,1.392,0.466,2.643,1.449,3.791c1.372,1.684,4.664,3.894,9.845,6.674
			c4.23,2.26,7.128,4.021,8.678,5.246c1.538,1.225,2.737,2.643,3.573,4.289c0.823,1.658,1.238,3.368,1.238,5.155
			c0,3.445-1.327,6.419-3.989,8.895c-2.642,2.514-6.074,3.752-10.253,3.752c-1.32,0-2.571-0.115-3.752-0.294
			c-0.677-0.127-2.106-0.523-4.288-1.237c-2.182-0.702-3.535-1.06-4.128-1.06c-0.555,0-1.001,0.179-1.302,0.523
			c-0.325,0.318-0.574,0.995-0.734,2.067h-1.212v-15.544h1.212c0.587,3.255,1.378,5.666,2.342,7.287
			c1.002,1.634,2.482,2.96,4.518,4.032c2.003,1.085,4.237,1.597,6.63,1.597c2.769,0,4.964-0.729,6.572-2.196
			c1.646-1.454,2.451-3.216,2.451-5.232c0-1.11-0.307-2.232-0.913-3.355c-0.606-1.149-1.569-2.195-2.878-3.166
			c-0.855-0.663-3.228-2.093-7.088-4.263c-3.88-2.169-6.649-3.917-8.289-5.206c-1.646-1.302-2.897-2.731-3.752-4.302
			c-0.824-1.556-1.25-3.267-1.25-5.13c0-3.254,1.25-6.062,3.752-8.423c2.481-2.361,5.659-3.534,9.539-3.534
			c2.411,0,4.932,0.601,7.625,1.773c1.25,0.575,2.144,0.843,2.667,0.843c0.548,0,1.034-0.165,1.391-0.524
			c0.376-0.331,0.676-1.032,0.894-2.092H-702.236z"/>
		<path fill="#FFFFFF" d="M-695.625,869.566l9.418-3.802h1.283v7.121c1.589-2.681,3.165-4.557,4.772-5.627
			c1.569-1.099,3.248-1.634,5.034-1.634c3.076,0,5.628,1.211,7.683,3.623c2.501,2.922,3.771,6.764,3.771,11.499
			c0,5.271-1.519,9.647-4.556,13.093c-2.501,2.834-5.647,4.25-9.43,4.25c-1.646,0-3.056-0.229-4.269-0.703
			c-0.894-0.317-1.876-1.008-3.005-2.027v9.354c0,2.094,0.127,3.434,0.415,3.994c0.249,0.574,0.695,1.009,1.32,1.353
			c0.625,0.32,1.769,0.499,3.465,0.499v1.25h-16.08v-1.25h0.843c1.231,0.025,2.283-0.206,3.139-0.689
			c0.415-0.269,0.753-0.665,0.982-1.187c0.236-0.549,0.357-1.928,0.357-4.199V875.54c0-1.978-0.09-3.254-0.282-3.766
			c-0.178-0.534-0.465-0.931-0.841-1.198c-0.396-0.269-0.913-0.423-1.57-0.423c-0.536,0-1.218,0.167-2.042,0.485L-695.625,869.566z
			 M-684.924,874.876v11.435c0,2.49,0.089,4.135,0.287,4.9c0.338,1.288,1.11,2.412,2.304,3.383c1.218,0.981,2.75,1.454,4.613,1.454
			c2.233,0,4.032-0.855,5.372-2.59c1.845-2.261,2.738-5.475,2.738-9.609c0-4.685-1.001-8.271-3.075-10.798
			c-1.41-1.709-3.126-2.578-5.092-2.578c-1.054,0-2.106,0.27-3.159,0.806C-681.741,871.66-683.08,872.886-684.924,874.876z"/>
		<path fill="#FFFFFF" d="M-641.848,892.742c-3.146,2.412-5.111,3.817-5.896,4.212c-1.212,0.534-2.501,0.817-3.86,0.817
			c-2.105,0-3.86-0.716-5.214-2.17c-1.378-1.43-2.073-3.331-2.073-5.717c0-1.494,0.357-2.796,1.002-3.867
			c0.925-1.518,2.501-2.949,4.767-4.288c2.252-1.327,6.023-2.948,11.274-4.888v-1.213c0-3.036-0.497-5.13-1.467-6.266
			c-0.963-1.135-2.374-1.697-4.23-1.697c-1.378,0-2.482,0.37-3.324,1.111c-0.855,0.776-1.289,1.658-1.289,2.615l0.089,1.964
			c0,1.021-0.268,1.813-0.785,2.363c-0.537,0.548-1.193,0.828-2.036,0.828c-0.842,0-1.5-0.294-2.035-0.88
			c-0.536-0.574-0.785-1.353-0.785-2.349c0-1.927,0.983-3.688,2.929-5.283c1.965-1.62,4.734-2.411,8.289-2.411
			c2.699,0,4.933,0.458,6.681,1.364c1.289,0.702,2.252,1.788,2.897,3.243c0.389,0.968,0.567,2.934,0.567,5.895v10.376
			c0,2.921,0.077,4.708,0.179,5.359c0.108,0.677,0.307,1.123,0.556,1.327c0.268,0.229,0.574,0.332,0.912,0.332
			c0.338,0,0.645-0.063,0.913-0.256c0.447-0.254,1.372-1.071,2.731-2.399v1.876c-2.521,3.306-4.933,4.978-7.179,4.978
			c-1.072,0-1.952-0.356-2.591-1.109C-641.491,895.869-641.828,894.594-641.848,892.742z M-641.848,890.535v-11.651
			c-3.356,1.352-5.539,2.31-6.54,2.846c-1.729,0.982-2.98,1.99-3.752,3.088c-0.766,1.086-1.142,2.246-1.142,3.497
			c0,1.57,0.485,2.935,1.43,3.981c0.963,1.072,2.074,1.607,3.324,1.607C-646.851,893.903-644.617,892.78-641.848,890.535z"/>
		<path fill="#FFFFFF" d="M-602.771,885.532c-0.843,4.032-2.45,7.134-4.862,9.303c-2.412,2.184-5.073,3.255-7.97,3.255
			c-3.483,0-6.521-1.456-9.112-4.365c-2.591-2.921-3.873-6.877-3.873-11.856c0-4.822,1.411-8.741,4.287-11.739
			c2.859-2.999,6.286-4.504,10.306-4.504c3.018,0,5.507,0.791,7.434,2.386c1.945,1.607,2.909,3.268,2.909,4.978
			c0,0.854-0.268,1.53-0.817,2.041c-0.574,0.511-1.327,0.767-2.291,0.767c-1.301,0-2.303-0.396-3-1.239
			c-0.356-0.484-0.605-1.352-0.714-2.679c-0.147-1.302-0.593-2.324-1.358-3.013c-0.805-0.663-1.876-1.008-3.236-1.008
			c-2.233,0-4.039,0.83-5.41,2.463c-1.787,2.195-2.68,5.092-2.68,8.678c0,3.65,0.893,6.865,2.661,9.673
			c1.787,2.807,4.237,4.211,7.306,4.211c2.182,0,4.128-0.765,5.845-2.259c1.251-1.008,2.431-2.883,3.573-5.563L-602.771,885.532z"/>
		<path fill="#FFFFFF" d="M-593.252,878.042c0,4.581,1.111,8.128,3.306,10.72c2.252,2.563,4.875,3.854,7.842,3.854
			c2.036,0,3.791-0.549,5.252-1.635c1.506-1.096,2.737-2.985,3.72-5.678l1.053,0.676c-0.485,3.05-1.837,5.82-4.071,8.347
			c-2.251,2.527-5.079,3.765-8.474,3.765c-3.694,0-6.84-1.429-9.45-4.288c-2.609-2.858-3.93-6.713-3.93-11.561
			c0-5.234,1.34-9.305,4.039-12.252c2.68-2.936,6.055-4.404,10.133-4.404c3.426,0,6.252,1.138,8.448,3.396
			c2.195,2.246,3.305,5.27,3.305,9.061H-593.252z M-593.252,876.127h14.185c-0.109-1.953-0.357-3.343-0.696-4.146
			c-0.574-1.238-1.391-2.247-2.501-2.948c-1.124-0.728-2.253-1.086-3.446-1.086c-1.863,0-3.522,0.715-4.99,2.17
			C-592.141,871.545-593.002,873.563-593.252,876.127z"/>
		<path fill="#FFFFFF" d="M-535.92,865.625c4.665,0,8.377,1.748,11.166,5.27c2.393,3.024,3.574,6.482,3.574,10.389
			c0,2.744-0.645,5.5-1.965,8.308c-1.322,2.795-3.108,4.912-5.43,6.342c-2.285,1.454-4.863,2.157-7.721,2.157
			c-4.588,0-8.25-1.824-11-5.5c-2.272-3.088-3.395-6.572-3.395-10.428c0-2.832,0.677-5.626,2.067-8.409
			c1.397-2.742,3.216-4.798,5.468-6.125C-540.865,866.288-538.472,865.625-535.92,865.625z M-536.954,867.793
			c-1.16,0-2.342,0.357-3.554,1.047c-1.199,0.714-2.182,1.953-2.896,3.701c-0.753,1.748-1.11,4.02-1.11,6.789
			c0,4.454,0.894,8.294,2.649,11.512c1.786,3.24,4.128,4.836,7.038,4.836c2.143,0,3.93-0.867,5.321-2.641
			c1.398-1.762,2.112-4.825,2.112-9.188c0-5.438-1.18-9.737-3.503-12.864C-532.468,868.865-534.491,867.793-536.954,867.793z"/>
		<path fill="#FFFFFF" d="M-504.673,868.955v20.073c0,2.886,0.287,4.685,0.893,5.463c0.842,0.97,1.953,1.441,3.343,1.441h2.769
			v1.213h-18.313v-1.213h1.378c0.894,0,1.729-0.204,2.463-0.65c0.734-0.447,1.25-1.061,1.499-1.813
			c0.288-0.753,0.428-2.246,0.428-4.441v-20.073h-5.928v-2.399h5.928v-2.042c0-3.063,0.504-5.628,1.487-7.759
			c0.964-2.092,2.462-3.814,4.486-5.116c1.997-1.316,4.25-1.967,6.77-1.967c2.374,0,4.518,0.767,6.483,2.31
			c1.289,0.983,1.914,2.093,1.914,3.357c0,0.663-0.267,1.262-0.841,1.876c-0.568,0.6-1.194,0.893-1.896,0.893
			c-0.497,0-1.033-0.178-1.608-0.548c-0.568-0.371-1.263-1.176-2.087-2.398c-0.842-1.214-1.589-2.043-2.291-2.439
			c-0.695-0.421-1.442-0.625-2.265-0.625c-1.04,0-1.915,0.269-2.648,0.804c-0.715,0.537-1.212,1.391-1.531,2.527
			c-0.287,1.162-0.434,4.108-0.434,8.882v2.246h7.88v2.399H-504.673z"/>
		<path fill="#FFFFFF" d="M-464.436,856.448v10.107h7.127v2.31h-7.127v19.845c0,2.004,0.287,3.345,0.843,4.032
			c0.567,0.702,1.302,1.048,2.176,1.048c0.715,0,1.448-0.244,2.125-0.69c0.683-0.459,1.219-1.135,1.608-2.055h1.289
			c-0.766,2.208-1.857,3.829-3.287,4.952c-1.449,1.098-2.896,1.658-4.396,1.658c-1.034,0-2.055-0.292-3.018-0.854
			c-0.983-0.574-1.698-1.379-2.164-2.45c-0.466-1.033-0.714-2.68-0.714-4.888v-20.598h-4.863v-1.123
			c1.219-0.473,2.489-1.288,3.771-2.462c1.289-1.188,2.411-2.566,3.433-4.188c0.517-0.828,1.231-2.36,2.164-4.645H-464.436z"/>
		<path fill="#FFFFFF" d="M-445.338,849.595v22.438c2.47-2.746,4.416-4.506,5.864-5.259c1.462-0.766,2.909-1.148,4.338-1.148
			c1.749,0,3.254,0.484,4.505,1.429c1.251,0.957,2.158,2.463,2.77,4.505c0.409,1.441,0.626,4.07,0.626,7.861v10.796
			c0,1.94,0.178,3.267,0.497,3.995c0.217,0.498,0.587,0.931,1.123,1.25c0.524,0.319,1.519,0.472,2.949,0.472v1.213h-15.04v-1.213
			h0.714c1.41,0,2.393-0.204,2.948-0.638c0.555-0.434,0.944-1.073,1.161-1.927c0.09-0.356,0.122-1.403,0.122-3.152V879.42
			c0-3.369-0.16-5.552-0.517-6.611c-0.358-1.046-0.894-1.849-1.66-2.36c-0.771-0.536-1.696-0.805-2.769-0.805
			c-1.073,0-2.202,0.295-3.376,0.88c-1.18,0.589-2.59,1.749-4.256,3.549v16.144c0,2.08,0.127,3.407,0.338,3.931
			c0.256,0.512,0.683,0.931,1.327,1.275c0.638,0.358,1.71,0.511,3.267,0.511v1.213h-15.167v-1.213c1.359,0,2.444-0.204,3.216-0.624
			c0.429-0.218,0.785-0.627,1.054-1.251c0.268-0.626,0.395-1.901,0.395-3.842v-27.718c0-3.484-0.089-5.628-0.255-6.432
			c-0.16-0.805-0.409-1.341-0.765-1.621c-0.32-0.306-0.805-0.447-1.392-0.447c-0.433,0-1.18,0.192-2.252,0.549l-0.484-1.212
			l9.168-3.74H-445.338z"/>
		<path fill="#FFFFFF" d="M-414.984,878.042c0,4.581,1.11,8.128,3.324,10.72c2.252,2.563,4.862,3.854,7.842,3.854
			c2.022,0,3.771-0.549,5.258-1.635c1.48-1.096,2.731-2.985,3.713-5.678l1.034,0.676c-0.46,3.05-1.818,5.82-4.052,8.347
			c-2.252,2.527-5.072,3.765-8.467,3.765c-3.701,0-6.847-1.429-9.457-4.288c-2.622-2.858-3.931-6.713-3.931-11.561
			c0-5.234,1.34-9.305,4.021-12.252c2.68-2.936,6.075-4.404,10.152-4.404c3.426,0,6.252,1.138,8.447,3.396
			c2.201,2.246,3.287,5.27,3.287,9.061H-414.984z M-414.984,876.127h14.203c-0.121-1.953-0.338-3.343-0.695-4.146
			c-0.569-1.238-1.391-2.247-2.501-2.948c-1.104-0.728-2.252-1.086-3.445-1.086c-1.857,0-3.523,0.715-4.984,2.17
			C-413.875,871.545-414.729,873.563-414.984,876.127z"/>
		<path fill="#FFFFFF" d="M-352.823,865.625v10.413h-1.073c-0.86-3.254-1.952-5.475-3.273-6.675
			c-1.339-1.186-3.017-1.786-5.071-1.786c-1.558,0-2.809,0.42-3.791,1.251c-0.963,0.815-1.442,1.748-1.442,2.73
			c0,1.25,0.357,2.323,1.084,3.204c0.683,0.905,2.093,1.876,4.218,2.908l4.863,2.412c4.536,2.182,6.82,5.093,6.82,8.718
			c0,2.769-1.07,5.015-3.177,6.736c-2.106,1.697-4.466,2.553-7.075,2.553c-1.857,0-4.001-0.333-6.394-1.021
			c-0.753-0.217-1.379-0.333-1.845-0.333c-0.497,0-0.893,0.282-1.193,0.868h-1.072v-10.911h1.072
			c0.645,3.127,1.818,5.487,3.593,7.045c1.749,1.57,3.732,2.387,5.909,2.387c1.518,0,2.769-0.459,3.739-1.365
			c0.963-0.907,1.441-1.979,1.441-3.269c0-1.544-0.536-2.833-1.608-3.867c-1.072-1.058-3.215-2.359-6.444-3.993
			c-3.235-1.582-5.348-3.037-6.342-4.352c-1.002-1.251-1.487-2.884-1.487-4.812c0-2.515,0.842-4.606,2.571-6.304
			c1.717-1.697,3.949-2.539,6.687-2.539c1.212,0,2.692,0.254,4.409,0.738c1.129,0.359,1.876,0.512,2.213,0.512
			c0.358,0,0.664-0.063,0.862-0.23c0.21-0.165,0.467-0.499,0.733-1.02H-352.823z"/>
		<path fill="#FFFFFF" d="M-319.095,866.556v18.505c0,3.547,0.09,5.717,0.269,6.52c0.141,0.806,0.427,1.353,0.786,1.673
			c0.376,0.293,0.804,0.446,1.269,0.446c0.696,0,1.48-0.204,2.375-0.574l0.466,1.2l-9.202,3.765h-1.48v-6.51
			c-2.629,2.86-4.646,4.671-6.024,5.398c-1.39,0.741-2.839,1.111-4.377,1.111c-1.716,0-3.176-0.485-4.447-1.479
			c-1.25-1.009-2.144-2.272-2.629-3.83c-0.498-1.569-0.747-3.789-0.747-6.648v-13.667c0-1.43-0.159-2.425-0.466-2.999
			c-0.306-0.575-0.765-0.996-1.378-1.288c-0.606-0.283-1.71-0.436-3.318-0.436v-1.187h10.72v20.457c0,2.872,0.479,4.722,1.5,5.628
			c0.982,0.893,2.176,1.339,3.573,1.339c0.943,0,2.055-0.292,3.267-0.905c1.219-0.612,2.648-1.749,4.326-3.459v-17.343
			c0-1.749-0.326-2.923-0.962-3.534c-0.645-0.588-1.935-0.932-3.932-0.996v-1.187H-319.095z"/>
		<path fill="#FFFFFF" d="M-313.931,869.566l9.398-3.802h1.302v7.121c1.596-2.681,3.166-4.557,4.754-5.627
			c1.589-1.099,3.273-1.634,5.06-1.634c3.07,0,5.628,1.211,7.663,3.623c2.521,2.922,3.785,6.764,3.785,11.499
			c0,5.271-1.519,9.647-4.569,13.093c-2.488,2.834-5.628,4.25-9.418,4.25c-1.646,0-3.076-0.229-4.287-0.703
			c-0.894-0.317-1.876-1.008-2.987-2.027v9.354c0,2.094,0.127,3.434,0.396,3.994c0.268,0.574,0.715,1.009,1.321,1.353
			c0.625,0.32,1.767,0.499,3.484,0.499v1.25h-16.08v-1.25h0.822c1.251,0.025,2.303-0.206,3.146-0.689
			c0.428-0.269,0.747-0.665,1.002-1.187c0.229-0.549,0.339-1.928,0.339-4.199V875.54c0-1.978-0.09-3.254-0.268-3.766
			c-0.179-0.534-0.467-0.931-0.843-1.198c-0.408-0.269-0.912-0.423-1.589-0.423c-0.517,0-1.213,0.167-2.017,0.485L-313.931,869.566z
			 M-303.231,874.876v11.435c0,2.49,0.09,4.135,0.306,4.9c0.319,1.288,1.091,2.412,2.285,3.383c1.217,0.981,2.756,1.454,4.593,1.454
			c2.252,0,4.059-0.855,5.399-2.59c1.837-2.261,2.731-5.475,2.731-9.609c0-4.685-1.021-8.271-3.057-10.798
			c-1.449-1.709-3.158-2.578-5.124-2.578c-1.039,0-2.092,0.27-3.127,0.806C-300.048,871.66-301.367,872.886-303.231,874.876z"/>
		<path fill="#FFFFFF" d="M-268.551,865.625v6.891c2.57-4.581,5.199-6.891,7.898-6.891c1.251,0,2.252,0.383,3.038,1.122
			c0.784,0.752,1.192,1.595,1.192,2.579c0,0.879-0.28,1.62-0.875,2.219c-0.555,0.601-1.231,0.895-2.035,0.895
			c-0.804,0-1.698-0.385-2.643-1.148c-1.002-0.754-1.684-1.138-2.143-1.138c-0.415,0-0.862,0.218-1.327,0.678
			c-0.995,0.893-2.036,2.412-3.107,4.466v14.702c0,1.696,0.215,2.961,0.663,3.841c0.269,0.601,0.786,1.109,1.519,1.506
			c0.733,0.408,1.786,0.587,3.178,0.587v1.213h-15.653v-1.213c1.539,0,2.682-0.255,3.435-0.74c0.574-0.357,0.943-0.919,1.18-1.697
			c0.108-0.356,0.14-1.44,0.14-3.24v-11.896c0-3.534-0.051-5.64-0.198-6.327c-0.12-0.69-0.388-1.201-0.784-1.509
			c-0.388-0.305-0.875-0.445-1.461-0.445c-0.683,0-1.448,0.154-2.311,0.498l-0.388-1.213l9.253-3.738H-268.551z"/>
		<path fill="#FFFFFF" d="M-249.575,878.042c0,4.581,1.104,8.128,3.325,10.72c2.245,2.563,4.854,3.854,7.861,3.854
			c1.996,0,3.75-0.549,5.25-1.635c1.462-1.096,2.713-2.985,3.714-5.678l1.04,0.676c-0.465,3.05-1.843,5.82-4.078,8.347
			c-2.252,2.527-5.072,3.765-8.467,3.765c-3.682,0-6.84-1.429-9.449-4.288c-2.63-2.858-3.913-6.713-3.913-11.561
			c0-5.234,1.321-9.305,4.001-12.252c2.68-2.936,6.075-4.404,10.145-4.404c3.434,0,6.253,1.138,8.455,3.396
			c2.196,2.246,3.306,5.27,3.306,9.061H-249.575z M-249.575,876.127h14.203c-0.108-1.953-0.338-3.343-0.713-4.146
			c-0.537-1.238-1.379-2.247-2.484-2.948c-1.109-0.728-2.252-1.086-3.433-1.086c-1.855,0-3.534,0.715-5.003,2.17
			C-248.471,871.545-249.326,873.563-249.575,876.127z"/>
		<path fill="#FFFFFF" d="M-215.241,872.146c2.253-2.247,3.574-3.535,3.95-3.866c1.021-0.831,2.113-1.468,3.273-1.94
			c1.143-0.474,2.285-0.714,3.427-0.714c1.933,0,3.591,0.562,4.969,1.658c1.392,1.109,2.304,2.718,2.75,4.862
			c2.286-2.68,4.25-4.454,5.827-5.271c1.607-0.843,3.215-1.25,4.895-1.25c1.625,0,3.068,0.407,4.319,1.25
			c1.27,0.816,2.252,2.194,2.986,4.109c0.498,1.288,0.752,3.292,0.752,6.062v13.17c0,1.94,0.122,3.254,0.41,3.944
			c0.249,0.498,0.676,0.917,1.25,1.262c0.606,0.358,1.569,0.511,2.929,0.511v1.213h-15.116v-1.213h0.682
			c1.283,0,2.323-0.255,3.07-0.74c0.504-0.357,0.841-0.944,1.072-1.734c0.088-0.358,0.127-1.431,0.127-3.242v-13.17
			c0-2.489-0.288-4.25-0.874-5.271c-0.894-1.454-2.292-2.156-4.199-2.156c-1.18,0-2.38,0.294-3.554,0.881
			c-1.219,0.6-2.648,1.698-4.327,3.305l-0.07,0.384l0.07,1.441v14.587c0,2.08,0.109,3.407,0.358,3.931
			c0.229,0.512,0.674,0.931,1.32,1.275c0.645,0.358,1.755,0.511,3.287,0.511v1.213h-15.487v-1.213c1.698,0,2.858-0.179,3.503-0.587
			c0.638-0.396,1.073-1.008,1.34-1.824c0.09-0.383,0.16-1.467,0.16-3.306v-13.17c0-2.489-0.376-4.275-1.092-5.359
			c-1.002-1.43-2.36-2.17-4.109-2.17c-1.212,0-2.394,0.345-3.574,0.956c-1.857,0.997-3.286,2.12-4.327,3.331v16.412
			c0,2.016,0.167,3.317,0.435,3.931c0.3,0.563,0.714,1.046,1.25,1.339c0.535,0.295,1.639,0.447,3.317,0.447v1.213h-15.109v-1.213
			c1.371,0,2.335-0.152,2.89-0.447c0.594-0.293,1.021-0.776,1.308-1.428c0.3-0.664,0.447-1.94,0.447-3.842V878.54
			c0-3.37-0.108-5.54-0.345-6.508c-0.139-0.754-0.369-1.279-0.694-1.56c-0.358-0.268-0.786-0.395-1.372-0.395
			c-0.625,0-1.378,0.154-2.233,0.498l-0.505-1.213l9.222-3.738h1.39V872.146z"/>
		<path fill="#FFFFFF" d="M-165.93,878.042c0,4.581,1.092,8.128,3.325,10.72c2.233,2.563,4.844,3.854,7.841,3.854
			c2.023,0,3.772-0.549,5.258-1.635c1.482-1.096,2.733-2.985,3.734-5.678l1.014,0.676c-0.459,3.05-1.819,5.82-4.052,8.347
			c-2.252,2.527-5.072,3.765-8.486,3.765c-3.682,0-6.846-1.429-9.45-4.288c-2.61-2.858-3.93-6.713-3.93-11.561
			c0-5.234,1.353-9.305,4.033-12.252c2.699-2.936,6.073-4.404,10.15-4.404c3.427,0,6.253,1.138,8.43,3.396
			c2.221,2.246,3.305,5.27,3.305,9.061H-165.93z M-165.93,876.127h14.191c-0.108-1.953-0.345-3.343-0.683-4.146
			c-0.568-1.238-1.392-2.247-2.501-2.948c-1.123-0.728-2.265-1.086-3.446-1.086c-1.857,0-3.521,0.715-4.984,2.17
			C-164.838,871.545-165.673,873.563-165.93,876.127z"/>
		<path fill="#FFFFFF" d="M-115.15,871.813c2.966-4.122,6.164-6.188,9.61-6.188c3.126,0,5.863,1.34,8.187,4.019
			c2.354,2.705,3.503,6.368,3.503,11.014c0,5.475-1.788,9.827-5.399,13.133c-3.088,2.871-6.54,4.3-10.382,4.3
			c-1.767,0-3.554-0.318-5.411-0.97c-1.843-0.64-3.719-1.621-5.628-2.909v-31.726c0-3.472-0.069-5.615-0.249-6.419
			c-0.166-0.805-0.414-1.341-0.791-1.621c-0.357-0.306-0.804-0.447-1.321-0.447c-0.645,0-1.449,0.192-2.354,0.549l-0.466-1.212
			l9.183-3.74h1.519V871.813z M-115.15,873.933v18.313c1.143,1.123,2.303,1.977,3.522,2.552c1.192,0.563,2.443,0.869,3.694,0.869
			c2.074,0,3.969-1.137,5.699-3.37c1.754-2.207,2.628-5.476,2.628-9.737c0-3.931-0.874-6.93-2.628-9.035
			c-1.729-2.105-3.733-3.165-5.967-3.165c-1.192,0-2.373,0.307-3.552,0.92C-112.649,871.724-113.792,872.617-115.15,873.933z"/>
		<path fill="#FFFFFF" d="M-78.812,849.595v40.621c0,1.94,0.145,3.216,0.427,3.842c0.268,0.624,0.702,1.084,1.289,1.403
			c0.574,0.319,1.646,0.472,3.234,0.472v1.213h-14.987v-1.213c1.41,0,2.354-0.152,2.89-0.42c0.504-0.294,0.914-0.78,1.181-1.442
			c0.269-0.663,0.396-1.953,0.396-3.854v-27.782c0-3.471-0.058-5.604-0.218-6.381c-0.139-0.791-0.394-1.327-0.752-1.607
			c-0.337-0.306-0.784-0.447-1.302-0.447c-0.586,0-1.302,0.192-2.194,0.549l-0.594-1.212l9.131-3.74H-78.812z"/>
		<path fill="#FFFFFF" d="M-59.747,865.625v24.591c0,1.94,0.161,3.216,0.41,3.842c0.286,0.624,0.714,1.084,1.251,1.403
			c0.535,0.319,1.518,0.472,3.005,0.472v1.213h-14.868v-1.213c1.48,0,2.482-0.152,2.998-0.42c0.505-0.294,0.933-0.78,1.219-1.442
			c0.288-0.663,0.427-1.953,0.427-3.854v-11.792c0-3.33-0.108-5.475-0.286-6.443c-0.161-0.702-0.428-1.228-0.747-1.508
			c-0.345-0.268-0.792-0.395-1.378-0.395c-0.625,0-1.358,0.154-2.233,0.498l-0.498-1.213l9.214-3.738H-59.747z M-62.515,849.595
			c0.926,0,1.716,0.332,2.373,0.995c0.665,0.677,0.984,1.481,0.984,2.401c0,0.931-0.319,1.723-0.984,2.399
			c-0.657,0.676-1.447,1.021-2.373,1.021c-0.95,0-1.754-0.345-2.413-1.021c-0.663-0.677-1.002-1.469-1.002-2.399
			c0-0.92,0.319-1.725,0.984-2.401C-64.302,849.927-63.499,849.595-62.515,849.595z"/>
		<path fill="#FFFFFF" d="M-31.498,865.625v10.413h-1.072c-0.862-3.254-1.966-5.475-3.293-6.675
			c-1.32-1.186-3.017-1.786-5.052-1.786c-1.558,0-2.809,0.42-3.792,1.251c-0.982,0.815-1.442,1.748-1.442,2.73
			c0,1.25,0.359,2.323,1.072,3.204c0.696,0.905,2.105,1.876,4.231,2.908l4.863,2.412c4.556,2.182,6.807,5.093,6.807,8.718
			c0,2.769-1.059,5.015-3.164,6.736c-2.125,1.697-4.486,2.553-7.095,2.553c-1.858,0-3.981-0.333-6.395-1.021
			c-0.753-0.217-1.358-0.333-1.825-0.333c-0.498,0-0.892,0.282-1.212,0.868h-1.072v-10.911h1.072
			c0.645,3.127,1.837,5.487,3.611,7.045c1.749,1.57,3.733,2.387,5.896,2.387c1.531,0,2.782-0.459,3.752-1.365
			c0.963-0.907,1.441-1.979,1.441-3.269c0-1.544-0.536-2.833-1.608-3.867c-1.084-1.058-3.229-2.359-6.463-3.993
			c-3.235-1.582-5.342-3.037-6.324-4.352c-1.002-1.251-1.506-2.884-1.506-4.812c0-2.515,0.86-4.606,2.59-6.304
			c1.717-1.697,3.931-2.539,6.688-2.539c1.211,0,2.68,0.254,4.39,0.738c1.148,0.359,1.896,0.512,2.233,0.512
			c0.376,0,0.645-0.063,0.862-0.23c0.198-0.165,0.446-0.499,0.733-1.02H-31.498z"/>
		<path fill="#FFFFFF" d="M-4.847,865.625v10.413h-1.07c-0.855-3.254-1.947-5.475-3.287-6.675c-1.32-1.186-2.999-1.786-5.054-1.786
			c-1.557,0-2.807,0.42-3.771,1.251c-0.982,0.815-1.468,1.748-1.468,2.73c0,1.25,0.358,2.323,1.073,3.204
			c0.695,0.905,2.111,1.876,4.236,2.908l4.876,2.412c4.524,2.182,6.808,5.093,6.808,8.718c0,2.769-1.053,5.015-3.178,6.736
			c-2.13,1.697-4.485,2.553-7.094,2.553c-1.858,0-3.97-0.333-6.395-1.021c-0.753-0.217-1.359-0.333-1.825-0.333
			c-0.498,0-0.893,0.282-1.2,0.868h-1.084v-10.911h1.084c0.625,3.127,1.845,5.487,3.593,7.045c1.755,1.57,3.732,2.387,5.915,2.387
			c1.52,0,2.77-0.459,3.732-1.365c0.984-0.907,1.469-1.979,1.469-3.269c0-1.544-0.536-2.833-1.627-3.867
			c-1.092-1.058-3.235-2.359-6.452-3.993c-3.235-1.582-5.34-3.037-6.342-4.352c-1.001-1.251-1.48-2.884-1.48-4.812
			c0-2.515,0.854-4.606,2.57-6.304c1.717-1.697,3.932-2.539,6.681-2.539c1.219,0,2.68,0.254,4.397,0.738
			c1.143,0.359,1.896,0.512,2.253,0.512c0.356,0,0.645-0.063,0.835-0.23c0.217-0.165,0.466-0.499,0.735-1.02H-4.847z"/>
		<path fill="#FFFFFF" d="M28.066,856.448v10.107h7.128v2.31h-7.128v19.845c0,2.004,0.269,3.345,0.837,4.032
			c0.555,0.702,1.308,1.048,2.202,1.048c0.714,0,1.41-0.244,2.105-0.69c0.683-0.459,1.218-1.135,1.608-2.055h1.288
			c-0.771,2.208-1.875,3.829-3.285,4.952c-1.43,1.098-2.896,1.658-4.396,1.658c-1.053,0-2.037-0.292-3.038-0.854
			c-0.963-0.574-1.678-1.379-2.144-2.45c-0.465-1.033-0.714-2.68-0.714-4.888v-20.598h-4.862v-1.123
			c1.231-0.473,2.468-1.288,3.752-2.462c1.288-1.188,2.451-2.566,3.433-4.188c0.535-0.828,1.25-2.36,2.176-4.645H28.066z"/>
		<path fill="#FFFFFF" d="M53.149,865.625c4.646,0,8.359,1.748,11.148,5.27c2.393,3.024,3.572,6.482,3.572,10.389
			c0,2.744-0.643,5.5-1.964,8.308c-1.303,2.795-3.108,4.912-5.411,6.342c-2.303,1.454-4.881,2.157-7.74,2.157
			c-4.588,0-8.251-1.824-10.988-5.5c-2.266-3.088-3.408-6.572-3.408-10.428c0-2.832,0.696-5.626,2.067-8.409
			c1.398-2.742,3.217-4.798,5.488-6.125C48.198,866.288,50.597,865.625,53.149,865.625z M52.116,867.793
			c-1.181,0-2.361,0.357-3.575,1.047c-1.18,0.714-2.162,1.953-2.895,3.701c-0.753,1.748-1.112,4.02-1.112,6.789
			c0,4.454,0.894,8.294,2.668,11.512c1.766,3.24,4.12,4.836,7.018,4.836c2.144,0,3.95-0.867,5.342-2.641
			c1.396-1.762,2.092-4.825,2.092-9.188c0-5.438-1.161-9.737-3.484-12.864C56.582,868.865,54.578,867.793,52.116,867.793z"/>
		<path fill="#FFFFFF" d="M87.771,866.556h14.242v1.187h-0.694c-1.002,0-1.754,0.218-2.252,0.676
			c-0.498,0.447-0.752,0.982-0.752,1.622c0,0.879,0.394,2.093,1.148,3.599l7.426,15.442l6.847-16.896
			c0.389-0.906,0.587-1.826,0.587-2.731c0-0.396-0.089-0.676-0.25-0.882c-0.178-0.242-0.465-0.445-0.842-0.611
			c-0.37-0.141-1.052-0.218-1.998-0.218v-1.187h9.986v1.187c-0.854,0.115-1.468,0.319-1.927,0.563
			c-0.434,0.255-0.932,0.765-1.506,1.518c-0.179,0.307-0.537,1.138-1.104,2.526l-12.475,30.564
			c-1.212,2.962-2.782,5.195-4.747,6.738c-1.934,1.52-3.83,2.285-5.616,2.285c-1.321,0-2.393-0.396-3.249-1.149
			c-0.86-0.766-1.288-1.621-1.288-2.591c0-0.945,0.306-1.697,0.932-2.284c0.625-0.534,1.461-0.841,2.521-0.841
			c0.747,0,1.767,0.241,3.037,0.714c0.874,0.356,1.443,0.537,1.658,0.537c0.665,0,1.393-0.359,2.184-1.036
			c0.784-0.688,1.569-2.015,2.373-4.032l2.196-5.321L93.221,872.86c-0.338-0.715-0.875-1.558-1.622-2.591
			c-0.555-0.767-1.002-1.288-1.378-1.57c-0.484-0.357-1.302-0.675-2.451-0.957V866.556z"/>
		<path fill="#FFFFFF" d="M138.692,865.625c4.644,0,8.364,1.748,11.185,5.27c2.361,3.024,3.554,6.482,3.554,10.389
			c0,2.744-0.658,5.5-1.98,8.308c-1.308,2.795-3.113,4.912-5.417,6.342c-2.283,1.454-4.874,2.157-7.713,2.157
			c-4.595,0-8.277-1.824-11.008-5.5c-2.272-3.088-3.413-6.572-3.413-10.428c0-2.832,0.696-5.626,2.074-8.409
			c1.391-2.742,3.215-4.798,5.481-6.125C133.745,866.288,136.139,865.625,138.692,865.625z M137.657,867.793
			c-1.161,0-2.361,0.357-3.555,1.047c-1.199,0.714-2.181,1.953-2.915,3.701c-0.716,1.748-1.084,4.02-1.084,6.789
			c0,4.454,0.873,8.294,2.641,11.512c1.769,3.24,4.129,4.836,7.02,4.836c2.182,0,3.949-0.867,5.346-2.641
			c1.392-1.762,2.087-4.825,2.087-9.188c0-5.438-1.162-9.737-3.484-12.864C142.123,868.865,140.12,867.793,137.657,867.793z"/>
		<path fill="#FFFFFF" d="M184.785,866.556v18.505c0,3.547,0.078,5.717,0.255,6.52c0.178,0.806,0.428,1.353,0.804,1.673
			c0.37,0.293,0.805,0.446,1.264,0.446c0.682,0,1.486-0.204,2.38-0.574l0.447,1.2l-9.183,3.765h-1.506v-6.51
			c-2.603,2.86-4.625,4.671-5.998,5.398c-1.396,0.741-2.857,1.111-4.363,1.111c-1.71,0-3.217-0.485-4.468-1.479
			c-1.263-1.009-2.142-2.272-2.64-3.83c-0.499-1.569-0.754-3.789-0.754-6.648v-13.667c0-1.43-0.141-2.425-0.46-2.999
			c-0.286-0.575-0.752-0.996-1.359-1.288c-0.605-0.283-1.715-0.436-3.323-0.436v-1.187h10.72v20.457c0,2.872,0.498,4.722,1.5,5.628
			c0.982,0.893,2.183,1.339,3.572,1.339c0.964,0,2.054-0.292,3.274-0.905c1.231-0.612,2.66-1.749,4.3-3.459v-17.343
			c0-1.749-0.299-2.923-0.943-3.534c-0.627-0.588-1.947-0.932-3.95-0.996v-1.187H184.785z"/>
	</g>
	<rect x="-922.259" y="878.169" fill="#FFFFFF" width="166.335" height="3.561"/>
	<rect x="216.518" y="878.169" fill="#FFFFFF" width="166.314" height="3.561"/>
</g>
</svg>
