<?xml version="1.0" encoding="utf-8"?>
<!-- Generator: Adobe Illustrator 16.0.0, SVG Export Plug-In . SVG Version: 6.00 Build 0)  -->
<!DOCTYPE svg PUBLIC "-//W3C//DTD SVG 1.1//EN" "http://www.w3.org/Graphics/SVG/1.1/DTD/svg11.dtd">
<svg version="1.1" id="レイヤー_1" xmlns="http://www.w3.org/2000/svg" xmlns:xlink="http://www.w3.org/1999/xlink" x="0px"
	 y="0px" width="2463.143px" height="704.627px" viewBox="-955.341 186.53 2463.143 704.627"
	 enable-background="new -955.341 186.53 2463.143 704.627" xml:space="preserve">
<g>
	<g>
		<path fill="#FFFFFF" d="M-231.625,381.099c61.949,0,95.966,29.576,96.149,73.9c-0.183,37.45-24.034,60.014-48.974,67.122
			c47.044,7.04,75.749,41.486,75.735,85.268c0,49.881-37.155,83.035-102.966,83.035H-335.89l0.086-4.406h5.582
			c15.363,0,27.859-12.255,28.307-27.519V412.912c0-15.233-12.96-27.436-28.379-27.436h-5.51l-0.086-4.403L-231.625,381.099z
			 M-213.258,674.3c45.354,0.204,71.409-25.424,71.382-70.093c0.029-65.712-56.021-76.361-98.655-76.477c-0.358,0-3.32,0-3.677,0
			v-5.667c0.356,0,3.208,0,3.548,0c27.074-0.118,71.883-7.793,72.042-63.915c-0.159-39.911-22.706-62.934-64.594-62.878H-273.1
			v279.028L-213.258,674.3L-213.258,674.3z"/>
		<path fill="#FFFFFF" d="M-17.051,690.423l0.088-4.439h5.898c16.437,0,29.691-10.678,30.021-23.906V453.626
			c-0.33-13.283-13.604-23.937-30.051-23.937h-5.895l-0.076-4.465h100.09v4.465h-5.928c-16.08,0-29.205,10.249-29.981,23.14v209.59
			c0.518,13.062,13.744,23.564,29.995,23.564h5.897l0.071,4.439H-17.051z"/>
		<path fill="#FFFFFF" d="M434.724,639.659c-20.574,26.031-63.636,56.954-125.872,56.954
			c-87.316-0.463-144.924-53.147-144.924-138.793c0-86.04,57.737-138.752,144.797-138.752c40.729,0,73.37,8.563,103.149,26.742
			l16.339,66.946h-3.877c-16.567-51.054-61.19-81.524-116.013-80.456c-67.484,1.341-112.469,47.701-112.469,125.554
			c0,77.481,45.214,125.467,113.002,125.467c36.794,0,69.451-11.337,97.125-38.281l0.714-58.726
			c0.171-11.104-7.646-17.382-20.559-17.348h-6.286v-4.41h81.051v4.41h-6.043c-12.899,0-20.204,6.209-20.143,17.525L434.724,639.659
			z"/>
		<path fill="#FFFFFF" d="M764.62,660.243c9.022,18.155,22.288,25.74,34.116,25.74h3.322v4.439h-90.748v-4.407h3.505
			c10.077,0,21.403-9.565,15.617-26.519l-24.139-58.812H594.483l-24.31,57.615c-6.744,17.69,4.866,27.743,15.178,27.743h3.52v4.381
			h-84.196v-4.44h3.495c11.78,0,25.582-7.503,34.646-25.508l91.5-195.856c-0.146,0,16.103-33.956,17.006-45.521h4.164
			L764.62,660.243z M700.858,587.458l-49.653-120.94l-51.097,120.94H700.858z"/>
		<path fill="#FFFFFF" d="M933.226,662.361c0.477,13.119,11.929,23.652,26.014,23.652h5.155l0.072,4.408h-90.711l0.072-4.408h5.137
			c14.189,0,25.714-10.655,26-23.908V453.626c-0.272-13.255-11.798-23.937-26.025-23.937h-5.112l-0.086-4.407h90.693l-0.074,4.407
			h-5.136c-13.958,0-25.325,10.282-26.003,23.193v209.479H933.226z"/>
		<path fill="#FFFFFF" d="M1085.644,658.069c14.444,14.061,44.565,30.349,63.823,30.81v4.41h-29.222
			c-13.317,0-44.153-1.348-64.939-25.024L949.822,558.653l95.02-111.87c6.498-7.878,0.571-17.209-9.681-17.209h-3.923v-4.294h89.795
			v4.294h-1.762c-16.934,0.058-32.382,5.666-42.863,16.037l-96.382,102.935L1085.644,658.069z"/>
		<path fill="#FFFFFF" d="M1477.843,425.282v4.407h-6.556c-11.428,0-20.729,7.906-21.246,18.61v148.749
			c0,61.702-41.961,99.563-110.153,99.563c-68.259,0-110.538-37.602-110.538-98.904V448.816
			c-0.227-10.936-9.633-19.127-21.231-19.127h-6.557v-4.407h83.852v4.407h-6.539c-11.612,0-21.052,8.19-21.306,19.127v143.286
			c0,57.375,31.14,92.481,81.89,92.481c55.733,0,89.963-33.271,90.095-87.561V448.536c-0.376-10.824-9.732-18.846-21.25-18.846
			h-6.552v-4.406h76.092V425.282z"/>
	</g>
	<g>
		<path fill="#FFFFFF" d="M-705.838,195.1c-26.281,198.035-92.301,317.966-219.544,343.744
			c127.242,25.773,193.263,145.708,219.544,343.743c26.283-198.039,92.307-317.97,219.548-343.743
			C-613.53,513.07-679.555,393.135-705.838,195.1z M-705.838,781.538c-18.542-139.813-65.169-224.472-155.011-242.694
			c89.842-18.175,136.469-102.881,155.011-242.696c18.557,139.813,65.183,224.521,155.015,242.696
			C-640.653,557.066-687.281,641.724-705.838,781.538z"/>
		<path fill="#FFFFFF" d="M-745.867,642.675l0.055-3.559h4.729c13.141,0,23.766-8.525,24.013-19.146V453.273
			c-0.247-10.617-10.881-19.163-24.038-19.163h-4.714l-0.065-3.548h80.063v3.548h-4.744c-12.866,0-23.351,8.2-23.976,18.561v167.602
			c0.425,10.47,10.998,18.844,23.982,18.844h4.715l0.078,3.562h-80.096V642.675z"/>
		<path fill="#FFFFFF" d="M-800.243,500.979l3.163,0.046v4.229c0,11.7,7.599,21.132,17.031,21.368h148.409
			c9.444-0.236,17.075-9.668,17.075-21.412v-4.185l3.131-0.066v71.278h-3.131v-4.21c0-11.463-7.33-20.81-16.516-21.352h-149.206
			c-9.338,0.372-16.794,9.777-16.794,21.352v4.188l-3.163,0.069v-71.306H-800.243z"/>
	</g>
</g>
</svg>
