<?xml version="1.0" encoding="utf-8"?>
<!-- Generator: Adobe Illustrator 16.0.0, SVG Export Plug-In . SVG Version: 6.00 Build 0)  -->
<!DOCTYPE svg PUBLIC "-//W3C//DTD SVG 1.1//EN" "http://www.w3.org/Graphics/SVG/1.1/DTD/svg11.dtd">
<svg version="1.1" id="レイヤー_1" xmlns="http://www.w3.org/2000/svg" xmlns:xlink="http://www.w3.org/1999/xlink" x="0px"
	 y="0px" width="1899.026px" height="412.12px" viewBox="-1521.615 1075.68 1899.026 412.12"
	 enable-background="new -1521.615 1075.68 1899.026 412.12" xml:space="preserve">
<g>
	<path fill="#FFFFFF" d="M-868.27,1353.843c-0.513-2.556-1.632-3.797-3.424-3.797c-2.245,0-4.265,1.163-6.163,3.531
		c-9.216,10.184-16.835,15.141-23.297,15.141c-0.218,0-0.436-0.01-0.654-0.021c-10.602-0.555-22.894-12.479-22.886-27.037
		c1.078-4.666,2.504-9.414,3.883-14.008c0.456-1.517,0.912-3.033,1.356-4.557c2.554-8.722,3.848-17.305,3.848-25.514
		c0-9.176-2.889-14.351-8.614-15.395c-16.615-2.438-25.045,8.54-25.045,32.611c0,9.628,1.272,18.798,3.585,25.874
		c-0.319,0.438-0.633,0.874-0.943,1.301c-4.284,5.896-7.982,10.992-24.221,25.332c-9.985,8.817-25.074,22.144-39.684,22.144
		c-4.372,0-7.834-2.535-10.02-7.346c-1.864-3.73-2.813-7.504-2.813-11.229c0-14.745,11.391-37.485,34.815-69.512
		c16.308-21.904,37.579-47.082,65.024-76.981l2.93-3.17c19.275-20.85,30.912-33.434,31.824-34.047
		c-0.005,0.005-0.102,0.074-0.255,0.074l0.013-0.557h0.564c0-0.146-0.002-0.292-0.007-0.433l-0.005-0.145l0,0
		c-0.419-7.638-9.051-12.904-16.818-12.904c-20.035,0-49.327,27.608-87.06,82.053c-21.617,31.162-36.511,55.831-45.532,75.413
		c-28.455,31.729-52.449,51.591-73.345,60.735c-2.934,1.258-5.362,1.87-7.433,1.87c-3.998,0-6.162-2.65-6.614-8.1
		c-0.94-9.866,5.305-24.715,18.559-44.115c6.655-9.508,19.202-25.432,37.278-47.316c13.949-15.872,20.754-25.524,20.229-28.663
		c-0.987-8.899-6.97-13.415-17.785-13.415c-7.923,0-24.491,15.68-49.243,46.619c-28.786,36.592-45.254,54.819-48.761,58.332
		c-35.197,36.68-53.265,39.527-57.961,39.527c-3.144,0-4.741-1.757-5.178-5.717c-1.393-12.978,9.059-34.917,31.955-67.068
		c16.79-24.05,32.311-42.879,44.908-54.465c2.098-2.099,3.037-4.146,3.037-6.62c0-4.188-2.008-9.174-11.571-9.174
		c-10.03,0-19.608,5.029-27.698,14.547l-62.287,73.116c-28.456,31.409-60.931,52.512-80.809,52.512
		c-12.832,0-14.745-8.936-14.745-14.267c0-20.376,13.898-41.927,25.067-59.245c2.123-3.288,4.129-6.401,5.939-9.341
		c14.933-22.865,36.011-52.637,62.65-88.476c22.23-29.796,33.381-44.827,33.491-44.972l0.127-0.172l-0.018-0.214
		c-0.504-6.067-9.516-12.001-15.873-12.001c-16.086,0-42.219,29.822-79.897,91.171c-17.018,27.376-30.386,51.333-39.735,71.2
		c-11.641,14.002-26.396,27.984-43.855,41.564c-25.81,20.549-46.938,30.972-62.8,30.972c-7.165,0-13.383-2.703-17.517-7.612
		c-4.034-4.796-5.601-11.202-4.413-18.038c4.572-26.353,29.024-61.012,58.146-82.413c16.896-12.411,28.659-18.61,37.01-19.504
		c0.536,0.011,0.806,0.208,0.84,0.357c-0.177,0.546-1.793,3.227-4.014,6.906c-0.767,1.272-1.634,2.713-2.6,4.321
		c-4.123,6.869-6.3,12.429-6.3,16.075c0,5.457,4.375,8.22,13.002,8.22c8.436,0,15.224-4.404,19.63-12.719
		c3.914-6.853,5.816-14.142,5.816-22.287c0-12.449-10.464-21.137-25.446-21.137c-22.385,0-48.116,14.865-76.476,44.188
		c-27.721,29.151-41.779,55.358-41.779,77.897c0,17.747,10.444,29.515,31.04,34.987c3.43,0.913,7.308,1.453,10.376,1.453
		c16.412,0,36.069-8.541,61.858-26.897c13.695-9.782,26.593-20.876,38.372-33.002c-2.564,8.868-3.866,16.912-3.866,23.932
		c0,22.637,19.816,30.71,38.358,30.71c28.861,0,59.661-30.144,80.32-52.817l7.997-8.998c6.354-6.762,12.154-12.616,15.742-16.175
		c-16.992,26.336-24.985,45.633-23.769,57.38c1.457,16.527,8.892,24.913,22.091,24.913c15.108,0,45.859-17.109,87.168-64.971
		c-0.922,3.07-2.286,6.562-3.617,9.959c-1.25,3.19-2.426,6.203-3.24,8.838c-2.205,7.498-3.371,14.833-3.371,21.214
		c0,13.353,11.706,23.048,27.835,23.048c2.437,0,4.359,0,6.809-0.488c7.578-1.518,22.391-11.649,42.84-29.314
		c10.113-8.909,17.898-16.21,24.974-23.432c-1.007,4.272-1.517,8.137-1.517,11.524c0,12.719,2.185,22.465,6.492,28.959
		c4.351,6.558,10.887,9.883,19.428,9.883c16.613,0,34.057-8.261,54.905-25.972c9.229-7.847,14.729-12.859,27.864-27.24
		c8.99,21.207,18.673,29.11,35.496,29.11c11.097,0,21.41-5.856,31.557-17.937c2.549-3.569,3.931-5.98,3.931-8.464L-868.27,1353.843z
		"/>
	<path fill="#FFFFFF" d="M-517.113,1128.798v-46.366c0-1.651-1.345-3.002-3.003-3.002h-19.302c-1.662,0-3.008,1.351-3.008,3.002
		v5.103c-10.469,1.139-24.26,2.298-36.909,2.298c-12.446,0-25.729-1.124-35.868-2.235v-5.165c0-1.651-1.343-3.002-3.003-3.002
		h-19.307c-1.658,0-3.003,1.351-3.003,3.002v46.366c-60.494,24.43-103.189,83.695-103.189,152.941
		c0,69.252,42.695,128.522,103.189,152.947v46.358c0,1.663,1.346,3.005,3.003,3.005h19.307c1.66,0,3.003-1.342,3.003-3.005v-5.097
		c10.475-1.139,24.261-2.301,36.913-2.301c12.442,0,25.728,1.127,35.864,2.245v5.152c0,1.663,1.346,3.005,3.008,3.005h19.302
		c1.658,0,3.003-1.342,3.003-3.005v-46.358c60.497-24.425,103.189-83.695,103.189-152.947
		C-413.924,1212.493-456.616,1153.228-517.113,1128.798z M-615.267,1161.826v-50.298v-7.497c1.437,0.154,2.943,0.316,4.493,0.466
		c0-0.005,0-0.005,0-0.005c2.25,0.229,4.617,0.437,7.045,0.645c0.157,0.012,0.307,0.021,0.459,0.032
		c0.468,0.042,0.94,0.078,1.414,0.113c0.229,0.022,0.46,0.032,0.694,0.052c0.434,0.031,0.873,0.069,1.315,0.099
		c0.28,0.017,0.561,0.037,0.838,0.058c0.416,0.031,0.829,0.063,1.242,0.084c0.325,0.02,0.652,0.041,0.982,0.062
		c0.38,0.031,0.761,0.053,1.143,0.073c0.491,0.03,0.979,0.062,1.47,0.083c0.418,0.026,0.832,0.046,1.255,0.067
		c0.517,0.031,1.031,0.058,1.553,0.077c0.289,0.017,0.583,0.026,0.873,0.043c0.448,0.021,0.899,0.041,1.349,0.056
		c0.31,0.018,0.612,0.022,0.922,0.036c0.441,0.012,0.886,0.027,1.327,0.043c0.302,0.01,0.603,0.02,0.904,0.025
		c0.457,0.017,0.914,0.025,1.369,0.037c0.288,0.005,0.576,0.01,0.859,0.021c0.502,0.005,1.001,0.01,1.498,0.021
		c0.236,0,0.48,0.005,0.716,0.01c0.741,0.011,1.476,0.011,2.211,0.011c0.743,0,1.491-0.011,2.244-0.011
		c0.25-0.005,0.499-0.01,0.754-0.01c0.504-0.011,1.003-0.016,1.504-0.021c0.298-0.011,0.594-0.021,0.896-0.021
		c0.462-0.016,0.925-0.03,1.393-0.043c0.311-0.01,0.615-0.015,0.924-0.02c0.46-0.021,0.921-0.036,1.375-0.053
		c0.309-0.009,0.618-0.02,0.927-0.031c0.473-0.021,0.943-0.041,1.421-0.063c0.283-0.01,0.572-0.024,0.86-0.036
		c0.563-0.03,1.122-0.058,1.678-0.083c0.259-0.016,0.514-0.03,0.774-0.048c0.662-0.03,1.327-0.071,1.993-0.108
		c0.339-0.02,0.683-0.041,1.023-0.066c0.397-0.022,0.787-0.041,1.187-0.073c0.379-0.025,0.758-0.053,1.133-0.077
		c0.353-0.026,0.701-0.047,1.044-0.072c0.4-0.033,0.795-0.058,1.189-0.089c0.318-0.021,0.634-0.048,0.946-0.073
		c0.416-0.03,0.836-0.063,1.247-0.093c0.26-0.022,0.525-0.041,0.79-0.063c0.446-0.041,0.904-0.076,1.351-0.113
		c0.14-0.012,0.292-0.031,0.431-0.043c1.736-0.145,3.429-0.306,5.071-0.468c1.664-0.154,3.279-0.321,4.822-0.487v7.555v50.298
		v50.506c0,4.437-3.913,8.037-8.734,8.037h-55.447c-4.819,0-8.728-3.601-8.728-8.037V1161.826z M-542.358,1401.658v50.303v7.492
		c-1.439-0.155-2.946-0.312-4.495-0.468v0.005c-2.254-0.223-4.619-0.441-7.05-0.639c-0.15-0.011-0.301-0.025-0.458-0.041
		c-0.468-0.037-0.941-0.073-1.413-0.109c-0.228-0.017-0.457-0.037-0.685-0.058c-0.441-0.031-0.878-0.063-1.326-0.094
		c-0.275-0.02-0.556-0.042-0.836-0.063c-0.416-0.025-0.826-0.051-1.242-0.083c-0.327-0.021-0.649-0.041-0.982-0.063
		c-0.379-0.02-0.759-0.046-1.143-0.066c-0.488-0.032-0.977-0.059-1.471-0.089c-0.417-0.021-0.836-0.042-1.254-0.062
		c-0.517-0.032-1.033-0.053-1.554-0.084c-0.289-0.011-0.579-0.021-0.873-0.031c-0.446-0.021-0.896-0.042-1.348-0.063
		c-0.307-0.011-0.61-0.021-0.915-0.03c-0.447-0.021-0.892-0.033-1.333-0.048c-0.301-0.009-0.603-0.015-0.904-0.026
		c-0.456-0.01-0.914-0.024-1.369-0.031c-0.288-0.01-0.577-0.02-0.859-0.02c-0.502-0.01-1.001-0.021-1.497-0.021
		c-0.236-0.01-0.48-0.01-0.722-0.015c-0.735-0.006-1.471-0.006-2.205-0.006c-0.744,0-1.492,0-2.245,0.006
		c-0.25,0.005-0.504,0.005-0.754,0.015c-0.5,0.005-1.002,0.012-1.503,0.021c-0.298,0.005-0.595,0.016-0.891,0.02
		c-0.468,0.012-0.931,0.021-1.397,0.037c-0.313,0.006-0.616,0.016-0.925,0.025c-0.459,0.017-0.92,0.032-1.375,0.043
		c-0.309,0.015-0.619,0.024-0.928,0.042c-0.473,0.014-0.945,0.036-1.42,0.056c-0.286,0.016-0.574,0.026-0.862,0.038
		c-0.564,0.028-1.12,0.051-1.679,0.082c-0.26,0.01-0.514,0.031-0.772,0.041c-0.665,0.041-1.329,0.077-1.992,0.115
		c-0.344,0.02-0.687,0.046-1.024,0.067c-0.397,0.021-0.79,0.046-1.183,0.078c-0.383,0.021-0.761,0.046-1.139,0.071
		c-0.351,0.022-0.699,0.053-1.044,0.073c-0.398,0.031-0.795,0.063-1.192,0.089c-0.312,0.021-0.629,0.046-0.944,0.072
		c-0.418,0.031-0.836,0.063-1.243,0.099c-0.266,0.022-0.528,0.041-0.791,0.063c-0.451,0.03-0.906,0.071-1.353,0.108
		c-0.146,0.016-0.288,0.025-0.431,0.036c-1.738,0.151-3.43,0.311-5.07,0.468c-1.663,0.166-3.279,0.327-4.819,0.494v-7.55v-50.303
		v-50.502c0-4.44,3.909-8.041,8.728-8.041h55.447c4.821,0,8.734,3.601,8.734,8.041V1401.658z M-517.113,1401.434v-55.228
		c0-0.074-0.016-0.135-0.021-0.203c0.681-16.745-15.021-23.048-24.435-26.824l-0.4-0.151c-15.082-6.058-32.638-20.454-34.695-22.56
		c-0.566-0.582-1.337-0.902-2.148-0.902c-0.81,0-1.582,0.32-2.148,0.902c-2.057,2.105-19.613,16.502-34.704,22.56l-0.397,0.156
		c-9.415,3.771-25.113,10.074-24.432,26.819c-0.003,0.068-0.021,0.129-0.021,0.203v55.228
		c-43.317-22.376-72.935-67.572-72.935-119.694c0-52.116,29.618-97.313,72.935-119.69v55.229c0,0.072,0.018,0.135,0.021,0.202
		c-0.681,16.746,15.022,23.048,24.438,26.825l0.392,0.156c15.088,6.058,32.646,20.449,34.704,22.559
		c0.567,0.576,1.343,0.902,2.148,0.902c0.811,0,1.582-0.326,2.152-0.902c2.054-2.109,19.604-16.501,34.698-22.559l0.399-0.161
		c9.415-3.772,25.111-10.074,24.43-26.82c0.005-0.067,0.021-0.13,0.021-0.202v-55.229c43.32,22.378,72.935,67.574,72.935,119.69
		C-444.178,1333.861-473.793,1379.058-517.113,1401.434z"/>
	<g>
		<path fill="#FFFFFF" d="M-26.905,1348.02c-19.748,22.995-41.331,40.327-64.742,52.006c-23.417,11.68-48.412,17.52-74.982,17.52
			c-19.286,0-35.818-3.303-49.597-9.917c-13.783-6.609-24.393-16.341-31.822-29.194c-6.869-12.366-10.235-26.363-10.101-42
			c0.135-15.634,3.782-33.278,10.942-52.934c15.223-41.776,39.205-74.866,71.959-99.28c32.747-24.409,69.453-36.619,110.119-36.619
			c15.82,0,37.767,4.391,65.843,13.17c3.709,0,7.212-1.147,10.521-3.438c3.305-2.286,6.91-6.084,10.829-11.398h11.31L7.51,1230.662
			h-8.713c-1.149-22.99-6.802-40.198-16.974-51.634c-10.173-11.43-24.897-17.151-44.184-17.151
			c-26.944,0-51.955,10.726-75.034,32.167c-23.078,21.446-41.528,51.145-55.354,89.088c-12.791,35.106-14.807,62.602-6.047,82.505
			c8.754,19.904,27.224,29.849,55.405,29.849c18.538,0,36.369-4.323,53.488-12.979c17.119-8.65,34.831-22.31,53.125-40.973
			L-26.905,1348.02z"/>
		<path fill="#FFFFFF" d="M21.185,1332.651l10.474-29.188h92.148l-10.479,29.188H21.185z"/>
		<path fill="#FFFFFF" d="M129.735,1411.431l4.864-13.348c53.758-36.961,93.556-67.827,119.399-92.609
			c25.832-24.778,42.583-47.676,50.241-68.691c5.897-16.188,6.578-28.742,2.032-37.637c-4.546-8.899-13.804-13.354-27.765-13.354
			c-11.623,0-22.975,3.436-34.067,10.294c-11.087,6.857-20.632,16.345-28.627,28.455h-10.012
			c13.54-23.604,29.588-41.959,48.146-55.062c18.559-13.104,37.783-19.649,57.682-19.649c20.148,0,34.202,5.869,42.168,17.611
			c7.954,11.744,8.421,27.251,1.397,46.532c-7.253,19.904-22.741,41.626-46.458,65.174c-23.724,23.545-60.045,52.932-108.966,88.157
			h73.049c11.369,0,19.499-1.454,24.388-4.354c4.889-2.904,10.745-8.624,17.561-17.151h10.199l-44.864,65.631H129.735z"/>
	</g>
</g>
</svg>
