<?xml version="1.0" encoding="utf-8"?>
<!-- Generator: Adobe Illustrator 16.0.0, SVG Export Plug-In . SVG Version: 6.00 Build 0)  -->
<!DOCTYPE svg PUBLIC "-//W3C//DTD SVG 1.1//EN" "http://www.w3.org/Graphics/SVG/1.1/DTD/svg11.dtd">
<svg version="1.1" id="レイヤー_1" xmlns="http://www.w3.org/2000/svg" xmlns:xlink="http://www.w3.org/1999/xlink" x="0px"
	 y="0px" width="400px" height="400px" viewBox="0 0 400 400" enable-background="new 0 0 400 400" xml:space="preserve">
<circle fill="none" stroke="#EFEFEF" stroke-width="15" stroke-miterlimit="10" cx="200" cy="200" r="186.271"/>
<g id="レイヤー_6">
	<path fill="#FFFFFF" d="M322.566,123.953c-9.009,4.023-18.669,6.733-28.854,7.913c10.361-6.208,18.361-16.045,22.121-27.805
		c-9.705,5.771-20.461,9.968-31.958,12.195c-9.181-9.792-22.251-15.866-36.722-15.866c-27.762,0-50.275,22.514-50.275,50.317
		c0,3.893,0.438,7.738,1.312,11.409c-41.794-2.098-78.867-22.076-103.688-52.548c-4.326,7.433-6.818,16.088-6.818,25.269
		c0,17.487,8.896,32.92,22.384,41.882c-8.24-0.263-16.002-2.535-22.776-6.296c0,0.22,0,0.481,0,0.657
		c0,24.349,17.312,44.677,40.34,49.312c-4.195,1.18-8.654,1.75-13.258,1.75c-3.234,0-6.382-0.307-9.441-0.875
		c6.403,19.979,24.973,34.492,46.963,34.932c-17.183,13.465-38.897,21.508-62.461,21.508c-4.043,0-8.065-0.219-12-0.699
		c22.251,14.297,48.713,22.602,77.13,22.602c92.461,0,143.084-76.637,143.084-143.086c0-2.229-0.043-4.371-0.174-6.558
		C307.309,142.928,315.833,134.053,322.566,123.953z"/>
</g>
</svg>
