<?xml version="1.0" encoding="utf-8"?>
<!-- Generator: Adobe Illustrator 16.0.0, SVG Export Plug-In . SVG Version: 6.00 Build 0)  -->
<!DOCTYPE svg PUBLIC "-//W3C//DTD SVG 1.1//EN" "http://www.w3.org/Graphics/SVG/1.1/DTD/svg11.dtd">
<svg version="1.1" id="レイヤー_1" xmlns="http://www.w3.org/2000/svg" xmlns:xlink="http://www.w3.org/1999/xlink" x="0px"
	 y="0px" width="400px" height="400px" viewBox="0 0 400 400" enable-background="new 0 0 400 400" xml:space="preserve">
<circle fill="none" stroke="#EFEFEF" stroke-width="15" stroke-miterlimit="10" cx="200" cy="200" r="186.271"/>
<g id="レイヤー_3">
	<g>
		<path fill="#FFFFFF" d="M248.353,316.475h-96.744c-37.5,0-68.063-30.549-68.063-68.053v-96.745
			c0-37.601,30.563-68.151,68.063-68.151h96.744c37.6,0,68.102,30.552,68.102,68.151v96.745
			C316.454,285.926,285.951,316.475,248.353,316.475z M151.608,105.265c-25.557,0-46.313,20.807-46.313,46.413v96.744
			c0,25.557,20.757,46.314,46.313,46.314h96.745c25.604,0,46.41-20.758,46.41-46.314v-96.745c0-25.606-20.807-46.413-46.41-46.413
			L151.608,105.265L151.608,105.265z"/>
		<path fill="#FFFFFF" d="M276.749,137.921c0,8.03-6.514,14.491-14.491,14.491c-8.03,0-14.542-6.461-14.542-14.491
			c0-8.029,6.512-14.541,14.542-14.541C270.235,123.38,276.749,129.892,276.749,137.921z"/>
		<path fill="#FFFFFF" d="M199.98,260.221c-33.193,0-60.169-26.977-60.169-60.17c0-33.245,26.977-60.219,60.169-60.219
			c33.244,0,60.221,26.974,60.221,60.219C260.201,233.244,233.224,260.221,199.98,260.221z M199.98,161.519
			c-21.201,0-38.48,17.283-38.48,38.531c0,21.197,17.279,38.481,38.48,38.481c21.25,0,38.533-17.284,38.533-38.481
			C238.513,178.802,221.229,161.519,199.98,161.519z"/>
	</g>
</g>
</svg>
