<?xml version="1.0" encoding="utf-8"?>
<!-- Generator: Adobe Illustrator 16.0.0, SVG Export Plug-In . SVG Version: 6.00 Build 0)  -->
<!DOCTYPE svg PUBLIC "-//W3C//DTD SVG 1.1//EN" "http://www.w3.org/Graphics/SVG/1.1/DTD/svg11.dtd">
<svg version="1.1" id="レイヤー_1" xmlns="http://www.w3.org/2000/svg" xmlns:xlink="http://www.w3.org/1999/xlink" x="0px"
	 y="0px" width="400px" height="400px" viewBox="0 0 400 400" enable-background="new 0 0 400 400" xml:space="preserve">
<circle fill="none" stroke="#EFEFEF" stroke-width="15" stroke-miterlimit="10" cx="200" cy="200" r="186.271"/>
<g>
	<path fill="#FFFFFF" d="M111.484,303.548V96.451h100.08c46.326,0,69.406,17.827,69.406,53.313c0,12.797-3.521,22.965-10.617,30.511
		c-7.155,7.487-17.939,12.852-32.354,16.093v0.614c14.755,1.063,26.823,5.588,36.267,13.636c9.498,8.046,14.25,19.334,14.25,33.864
		c0,10.393-1.955,19.388-5.701,27.045c-3.799,7.543-9.332,13.693-16.43,18.387c-7.209,4.581-15.867,8.047-26.039,10.281
		c-10.172,2.236-22.074,3.354-35.652,3.354L111.484,303.548L111.484,303.548z M160.269,135.011v42.971h42.693
		c17.824,0,26.71-7.152,26.71-21.568c0-8.216-2.12-13.859-6.479-16.877c-4.252-3.074-11.01-4.526-20.229-4.526H160.269
		L160.269,135.011z M160.938,216.26v49.01h41.8c12.462,0,21.234-2.123,26.541-6.481c5.252-4.304,7.881-10.226,7.881-17.66
		c0-5.868-0.84-10.674-2.458-14.362c-1.679-3.687-4.304-6.257-7.937-7.99c-3.632-1.73-8.604-2.514-14.923-2.514h-50.904V216.26z"/>
</g>
</svg>
