<?xml version="1.0" encoding="utf-8"?>
<!-- Generator: Adobe Illustrator 16.0.0, SVG Export Plug-In . SVG Version: 6.00 Build 0)  -->
<!DOCTYPE svg PUBLIC "-//W3C//DTD SVG 1.1//EN" "http://www.w3.org/Graphics/SVG/1.1/DTD/svg11.dtd">
<svg version="1.1" id="レイヤー_1" xmlns="http://www.w3.org/2000/svg" xmlns:xlink="http://www.w3.org/1999/xlink" x="0px"
	 y="0px" width="1382.587px" height="514.651px" viewBox="-1019.686 452.171 1382.587 514.651"
	 enable-background="new -1019.686 452.171 1382.587 514.651" xml:space="preserve">
<g>
	<path fill="#FFFFFF" d="M338.901,457.067H-995.686h-10.845v10.828v483.148v10.881h10.845H338.901h10.845v-10.881V467.896v-10.828
		H338.901z M328.055,940.218H-984.859V478.757H328.055V940.218z"/>
	<path fill="#FFFFFF" d="M-878.443,740.007l0.586,108.303c0.019,10.295,1.668,18.355,4.928,24.182
		c3.279,5.789,10.699,8.609,22.313,8.574l23.686-0.129c9.361-0.055,15.298-2.857,17.824-8.299c2.548-5.514,3.812-13.629,3.72-24.219
		l-0.275-68.145l16.854-0.111l0.458,81.209c0.402,8.994-1.979,17.273-7.126,24.674c-5.167,7.494-12.477,11.561-22.13,12.256
		l-47.446,0.275c-11.505-0.586-19.528-4.945-24.09-12.971c-4.672-8.023-6.979-16.889-7.053-26.598l-0.11-15.426l-1.301-262.055
		l-0.109-15.516c-0.073-10.297,2.289-19.381,7.272-27.15c4.817-7.748,12.971-11.98,24.438-12.658l44.497-0.221
		c9.618,0.588,17.587,4.563,23.688,11.928c6.191,7.418,9.195,15.645,8.884,24.639l0.44,81.246l-16.909,0.09l-0.439-68.201
		c-0.019-10.607-1.355-18.668-3.902-24.182c-2.656-5.439-8.609-8.17-17.989-8.078l-33.341,0.146
		c-5.862,0.018-10.295,2.969-13.446,8.773c-3.077,5.809-4.543,13.537-4.543,23.266l0.238,84.121l0.073,15.463l0.128,32.863
		L-878.443,740.007z"/>
	<polygon fill="#FFFFFF" points="-654.088,715.075 -653.429,846.606 -653.246,896.837 -672.5,897.003 -673.122,779.978 
		-673.653,682.284 -674.112,579.751 -674.277,564.272 -674.423,525.636 -656.068,525.47 -655.316,657.974 -655.243,673.437 
		-655.224,695.71 -581.709,695.325 -581.783,669.259 -581.965,642.165 -582.332,573.942 -582.588,525.124 -566.174,525.032 
		-565.552,642.073 -565.167,718.446 -564.435,841.276 -564.197,896.415 -583.505,896.472 -584.402,737.956 -583.707,715.185 
		-604.773,714.782 	"/>
	<polygon fill="#FFFFFF" points="-441.496,896.36 -462.049,896.435 -407.696,524.28 -386.647,524.151 -324.014,895.72 
		-346.51,895.849 -398.079,565.591 	"/>
	<path fill="#FFFFFF" d="M-225.512,895.171l-1.96-372.063l59.72-0.33c12.109-0.055,21.27,3.26,27.479,9.93
		c6.229,6.631,11.284,18.447,15.224,35.336c3.846,16.873,5.825,35.559,5.935,56.039c0.146,26.453-2.857,48.729-8.958,66.811
		c-6.101,18.025-17.642,30.482-28.468,34.457c3.06,10.004,49.993,169.195,49.993,169.195l-22.496,0.184l-48.509-165.055
		c0,0-5.734-0.055-10.388-0.055l-20.792,0.111l0.88,165.402L-225.512,895.171z M-208.53,715.202l33.065-0.127
		c11.339-0.074,18.483-6.686,22.625-14.182c4.194-7.4,7.693-17.623,10.514-30.498c2.84-12.861,4.69-28.818,5.552-47.723
		c-0.147-25.922-2.602-46.676-7.347-62.305c-4.744-15.607-13.886-26.232-34.22-26.141l-31.216,0.109L-208.53,715.202z"/>
	<polygon fill="#FFFFFF" points="126.491,825.632 106.321,825.851 9.248,556.448 10.951,892.989 -6.379,893.577 -7.587,521.733 
		17.015,521.587 116.616,792.29 208.78,520.544 239.006,520.417 240.929,892.751 221.365,892.862 219.587,556.319 	"/>
</g>
</svg>
