<?xml version="1.0" encoding="utf-8"?>
<!-- Generator: Adobe Illustrator 16.0.0, SVG Export Plug-In . SVG Version: 6.00 Build 0)  -->
<!DOCTYPE svg PUBLIC "-//W3C//DTD SVG 1.1//EN" "http://www.w3.org/Graphics/SVG/1.1/DTD/svg11.dtd">
<svg version="1.1" id="レイヤー_1" xmlns="http://www.w3.org/2000/svg" xmlns:xlink="http://www.w3.org/1999/xlink" x="0px"
	 y="0px" width="2157.486px" height="532.473px" viewBox="-1227.796 905.917 2157.486 532.473"
	 enable-background="new -1227.796 905.917 2157.486 532.473" xml:space="preserve">
<g>
	<path fill="#FFFFFF" d="M-695.871,1072.23c-12.952-30.553-31.452-57.982-54.999-81.547c-23.572-23.564-51.021-42.111-81.591-55.006
		c-31.658-13.383-65.248-20.186-99.907-20.186c-34.649,0-68.268,6.803-99.906,20.186c-30.57,12.893-58.018,31.439-81.583,55.006
		c-23.545,23.564-42.046,50.994-55.008,81.547c-13.371,31.684-20.136,65.303-20.136,99.904c0,34.68,6.764,68.279,20.136,99.943
		c12.962,30.553,31.463,57.982,55.008,81.563c23.565,23.588,51.013,42.096,81.583,54.992c31.64,13.4,65.257,20.184,99.906,20.184
		c34.659,0,68.248-6.783,99.907-20.184c30.57-12.896,58.019-31.404,81.591-54.992c23.547-23.58,42.047-51.01,54.999-81.563
		c13.38-31.664,20.145-65.264,20.145-99.943C-675.725,1137.532-682.491,1103.913-695.871,1072.23 M-701.899,1115.269
		c-3.645-4.445-7.759-8.326-12.387-11.596c-13.27-9.367-31.481-14.533-51.15-14.533h-84.194v-83.85
		c0-21.389-4.685-38.58-13.938-51.145c-3.384-4.682-7.443-8.807-12.053-12.488C-790.285,962.657-722.948,1029.97-701.899,1115.269
		 M-875.593,1206.253v22.412h-22.692v53.336h22.692v56.461c0,13.898-2.937,26.277-8.531,35.789
		c-9.004,14.98-26.593,23.564-48.112,23.564c-21.354,0-38.841-8.361-48.048-22.934c-5.566-8.994-8.541-21.482-8.541-36.145v-56.736
		h22.375v-53.076h-22.375v-22.672h-53.382v22.672h-56.457c-13.919,0-26.277-2.898-35.802-8.531
		c-14.96-9.049-23.546-26.553-23.546-48.094c0-21.352,8.297-38.857,22.922-48.074c9.005-5.594,21.492-8.547,36.108-8.547h56.773
		v22.41h53.077v-22.41h22.681v-53.336h-22.681v-56.496c0-13.881,2.935-26.277,8.529-35.791c9.003-14.98,26.593-23.547,48.057-23.547
		c21.409,0,38.923,8.344,48.105,22.916c5.621,8.973,8.529,21.518,8.529,36.125v56.793h-22.375v53.057h22.375v22.691h53.393V1115.4
		h56.457c13.919,0,26.278,2.955,35.803,8.51c14.959,9.053,23.545,26.596,23.545,48.115c0,21.371-8.354,38.877-22.922,48.057
		c-9.004,5.592-21.493,8.584-36.109,8.584h-56.772v-22.41h-53.076V1206.253z M-989.233,941.714
		c-4.451,3.625-8.326,7.748-11.606,12.355c-9.365,13.307-14.569,31.484-14.569,51.221v84.146h-83.832
		c-21.408,0-38.552,4.684-51.151,13.918c-4.683,3.439-8.79,7.471-12.461,12.045
		C-1141.852,1030.062-1074.552,962.732-989.233,941.714 M-1162.825,1229.036c3.645,4.461,7.75,8.363,12.387,11.619
		c13.269,9.361,31.48,14.514,51.197,14.514h84.138v83.904c0,21.352,4.683,38.543,13.947,51.123
		c3.438,4.627,7.443,8.791,12.025,12.451C-1074.468,1381.648-1141.779,1314.355-1162.825,1229.036 M-875.491,1402.648
		c4.451-3.66,8.38-7.768,11.605-12.396c9.395-13.322,14.542-31.5,14.542-51.18v-84.203h83.907c21.305,0,38.505-4.645,51.095-13.883
		c4.684-3.416,8.826-7.486,12.487-12.098C-722.872,1314.263-790.155,1381.573-875.491,1402.648"/>
	<g>
		<path fill="#FFFFFF" d="M593.979,1263.685l-44.843-78.184c28.281-8.377,45.805-32.211,45.805-65.066
			c0-31.902-16.296-52.51-40.887-60.846c-12.918-4.299-26.58-4.947-43.191-4.947H409.15v25.574h29.196v209.043h33.272v-94.695
			h44.813l54.285,94.695h42.196v-25.574H593.979L593.979,1263.685z M471.619,1167.327v-85.447h38.9
			c11.307,0,21.276,1.318,28.913,4.34c14.623,5.961,21.944,18.596,21.944,36.893c0,27.584-16.945,44.215-42.562,44.215H471.619z"/>
		<path fill="#FFFFFF" d="M191.596,1050.462c-67.041,0-121.388,54.396-121.388,121.428c0,67.092,54.347,121.43,121.388,121.43
			c67.093,0,121.468-54.338,121.468-121.43C313.064,1104.859,258.689,1050.462,191.596,1050.462 M191.596,1263.907
			c-50.775,0-91.947-41.191-91.947-92.016c0-50.787,41.172-91.959,91.947-91.959c50.827,0,91.999,41.172,91.999,91.959
			C283.595,1222.716,242.423,1263.907,191.596,1263.907"/>
		<path fill="#FFFFFF" d="M-232.447,1080.216h-29.591v-25.574h62.813v146.883c0,15.289,3.031,28.615,8.963,38.248
			c9.654,15.273,27.948,23.912,50.544,23.912c22.269,0,40.888-8.639,50.521-24.6c5.649-9.611,8.996-22.594,8.996-37.887v-146.557
			h62.468v25.574H-46.98v121.633c0,22.309-5.962,42.59-16.295,57.215c-15.934,22.572-44.52,34.215-76.442,34.215
			c-33.274,0-61.16-12.617-77.113-34.215c-10.961-14.971-15.616-34.582-15.616-57.215V1080.216z"/>
		<polygon fill="#FFFFFF" points="734.105,1054.642 890.895,1054.642 890.895,1109.138 861.993,1109.138 861.993,1081.88 
			767.327,1081.88 767.327,1158.443 860.968,1158.443 860.968,1185.663 767.327,1185.663 767.327,1262.044 861.993,1262.044 
			861.993,1233.769 890.895,1233.769 890.895,1289.261 734.105,1289.261 		"/>
		<path fill="#FFFFFF" d="M-385.918,1219.007v17.805c-16.703,17.039-39.987,27.605-65.734,27.605
			c-50.807,0-91.998-41.191-91.998-91.979c0-50.807,41.191-91.979,91.998-91.979c25.748,0,49.031,10.566,65.734,27.604v17.768
			h25.574c0-14.461,0-26.488,0-33.424c-22.229-25.354-54.913-41.396-91.31-41.396c-67.07,0-121.416,54.336-121.416,121.428
			c0,67.051,54.346,121.406,121.416,121.406c36.396,0,69.08-16.002,91.31-41.375c0-7.359,0-19.307,0-33.463H-385.918z"/>
	</g>
</g>
</svg>
