<?xml version="1.0" encoding="utf-8"?>
<!-- Generator: Adobe Illustrator 16.0.0, SVG Export Plug-In . SVG Version: 6.00 Build 0)  -->
<!DOCTYPE svg PUBLIC "-//W3C//DTD SVG 1.1//EN" "http://www.w3.org/Graphics/SVG/1.1/DTD/svg11.dtd">
<svg version="1.1" id="レイヤー_1" xmlns="http://www.w3.org/2000/svg" xmlns:xlink="http://www.w3.org/1999/xlink" x="0px"
	 y="0px" width="811.168px" height="742.456px" viewBox="-580.403 -262.817 811.168 742.456"
	 enable-background="new -580.403 -262.817 811.168 742.456" xml:space="preserve">
<g>
	<g>
		<path fill="#FFFFFF" d="M-289.152,7.154c-5.113,5.148-12.309,10.057-21.409,14.802c-6.717,3.45-13.276,6.114-19.621,8.033
			c-6.401,1.96-12.911,3.238-19.641,3.837c-0.345,1.379-0.62,2.715-0.79,3.93c-0.178,1.223-0.262,2.387-0.262,3.603
			c0,3.466,0.659,6.057,2.007,7.781c1.293,1.725,3.325,2.575,6.025,2.575c3.583,0,7.429-1.265,11.588-3.78
			c4.158-2.535,10.442-7.816,18.9-15.873c0.801-0.735,1.875-1.764,3.251-3.116c3.729-3.701,6.142-5.53,7.215-5.53
			c0.227,0,0.385,0.04,0.501,0.178c0.122,0.138,0.167,0.29,0.167,0.484c0,0.551-0.547,1.58-1.636,3.127
			c-1.097,1.554-1.924,2.932-2.568,4.096c-1.652,3.063-3.918,8.002-6.798,14.747c-2.895,6.744-5.113,11.7-6.656,14.916
			c-6.332,13.183-15.101,23.515-26.211,30.973c-11.159,7.475-23.301,11.247-36.488,11.247c-10.576,0-19.261-2.551-25.929-7.596
			c-6.688-5.077-10.037-11.594-10.037-19.563c0-8.373,3.637-15.677,10.875-21.83c7.313-6.196,15.937-9.274,25.925-9.274
			c7.697,0,14.146,1.946,19.26,5.822c5.09,3.913,7.624,8.779,7.624,14.608c0,6.269-2.713,11.597-8.126,16.049
			c-5.446,4.423-12.126,6.657-19.977,6.657c-3.834,0-7.527-0.535-11.013-1.538c-3.539-1.036-5.284-1.977-5.284-2.852
			c0-0.21,0.049-0.364,0.182-0.412c0.154-0.089,0.369-0.137,0.62-0.137c0.251,0,0.895,0.185,1.899,0.549
			c4.996,1.8,9.713,2.664,14.146,2.664c6.835,0,12.714-2.015,17.637-6.032c4.859-4.016,7.333-8.68,7.333-14.032
			c0-4.641-1.851-8.396-5.592-11.248c-3.724-2.89-8.647-4.355-14.741-4.355c-4.984,0-9.867,0.866-14.697,2.591
			c-4.73,1.765-8.972,4.178-12.616,7.256c-3.154,2.656-5.568,5.555-7.167,8.631c-1.627,3.094-2.437,6.31-2.437,9.57
			c0,6.318,2.83,11.613,8.482,15.855c5.665,4.301,12.738,6.431,21.313,6.431c12.64,0,24.208-4.818,34.816-14.479
			c10.599-9.67,22.151-26.221,34.612-49.638c-5.878,5.879-11.34,10.129-16.309,12.858c-4.996,2.736-9.846,4.129-14.502,4.129
			c-4.542,0-8.223-1.466-11.065-4.452c-2.915-2.955-4.312-6.794-4.312-11.499c0-0.713,0-1.376,0-1.903
			c0-0.584,0.068-1.198,0.104-1.789c-9.199-0.802-16.401-3.54-21.686-8.13c-5.23-4.64-7.871-10.471-7.871-17.515
			c0-7.903,3.143-14.514,9.438-19.808c6.333-5.312,14.184-7.969,23.682-7.969c6.296,0,12.078,1.191,17.381,3.58
			c5.28,2.413,10.05,5.944,14.256,10.72c6.174-3.254,12.231-5.813,18.062-7.603c5.903-1.807,10.956-2.729,15.2-2.729
			c3.417,0,6.045,0.737,7.882,2.203c1.879,1.424,2.799,3.514,2.799,6.106C-281.41-2.645-283.989,2.037-289.152,7.154L-289.152,7.154
			z M-340.778-14.142c-5.174-2.334-10.515-3.516-16.212-3.516c-8.329,0-15.425,2.267-21.341,6.785
			c-5.83,4.553-8.789,9.896-8.789,16.122c0,5.992,2.578,11.021,7.821,15.15c5.187,4.114,12.082,6.512,20.706,7.143
			c2.701-5.992,6.706-11.66,11.937-16.948c5.235-5.254,11.709-10.162,19.511-14.712C-331.137-8.458-335.676-11.787-340.778-14.142
			L-340.778-14.142z M-285.519-11.464c-1.52-1.148-3.633-1.724-6.406-1.724c-3.987,0-8.672,1.013-13.952,3.028
			c-5.283,2.073-10.802,4.956-16.515,8.729c2.093,2.779,3.766,5.266,5.033,7.532c1.255,2.251,1.875,3.838,1.875,4.631
			c0,0.349,0,0.624-0.109,0.81c-0.045,0.178-0.155,0.252-0.271,0.252c-0.311,0-1.292-1.427-2.871-4.341
			c-1.635-2.825-3.404-5.44-5.279-7.781c-6.199,4.341-11.325,8.858-15.39,13.66c-4.085,4.722-6.879,9.523-8.446,14.373
			c7.968,0,15.592-0.971,22.916-2.947c7.324-1.902,14.229-4.793,20.73-8.6c6.45-3.741,11.54-7.645,15.317-11.774
			c3.749-4.112,5.616-7.74,5.616-10.932C-283.272-8.662-284.025-10.337-285.519-11.464L-285.519-11.464z M-251.566,65.74
			c-1.013,1.198-2.584,2.867-4.681,4.939c-4.802,4.818-8.341,7.983-10.588,9.457c-2.271,1.426-4.384,2.154-6.38,2.154
			c-1.814,0-3.223-0.551-4.158-1.701c-0.956-1.117-1.421-2.777-1.421-4.931c0-0.575,0.024-1.222,0.133-1.936
			c0.049-0.729,0.238-1.765,0.547-3.157c-3.118,3.871-6.094,6.811-8.985,8.763c-2.902,1.975-5.616,2.962-8.133,2.962
			c-2.426,0-4.313-1.215-5.726-3.628c-1.384-2.38-2.077-5.732-2.077-10.008c0-1.036,0.049-2.065,0.227-3.126
			c0.13-1.037,0.349-2.065,0.62-3.045c-0.547,0.817-1.037,1.441-1.539,1.896c-0.478,0.486-0.875,0.696-1.267,0.696
			c-0.288,0-0.503-0.049-0.624-0.162c-0.105-0.048-0.154-0.161-0.154-0.34c0-0.348,0.563-1.223,1.721-2.574
			c1.158-1.353,2.712-2.98,4.647-4.939c4.24-4.18,8.482-7.41,12.759-9.693c4.218-2.284,8.15-3.418,11.685-3.418
			c2.178,0,3.918,0.583,5.21,1.7c1.316,1.102,1.935,2.624,1.935,4.494c0,0.437-0.048,0.883-0.117,1.361
			c-0.073,0.486-0.218,0.987-0.397,1.57l5.555-8.025l8.988-0.518l-14.961,23.087c-2.198,3.385-3.583,5.749-4.158,7.052
			c-0.575,1.304-0.838,2.438-0.838,3.378c0,0.729,0.133,1.28,0.457,1.618c0.296,0.309,0.823,0.486,1.575,0.486
			c1.122,0,2.963-0.955,5.401-2.866c2.438-1.879,5.536-4.705,9.228-8.494c1.085-1.029,2.292-2.34,3.676-3.879
			c1.425-1.514,2.243-2.251,2.566-2.251c0.276,0,0.47,0.048,0.6,0.113c0.129,0.072,0.179,0.227,0.179,0.438
			C-250.06,63.676-250.563,64.525-251.566,65.74L-251.566,65.74z M-272.989,59.885c1.997-3.781,3.024-7.004,3.024-9.741
			c0-1.183-0.453-2.178-1.304-2.971c-0.871-0.787-1.923-1.198-3.166-1.198c-2.199,0-4.588,0.938-7.216,2.85
			c-2.604,1.887-5.21,4.543-7.753,7.96c-2.474,3.441-4.409,6.892-5.83,10.332c-1.397,3.418-2.118,6.284-2.118,8.657
			c0,1.254,0.288,2.275,0.839,2.987c0.599,0.762,1.384,1.148,2.401,1.148c1.494,0,3.38-0.76,5.627-2.234
			c2.198-1.49,4.54-3.562,6.952-6.193C-277.828,67.538-275.005,63.651-272.989,59.885L-272.989,59.885z M-205.038,53.982
			c-0.891,0.673-1.579,1.15-2.081,1.497c-2.033,1.451-3.418,2.956-4.275,4.519c-0.899,1.563-1.296,3.328-1.296,5.353
			c0,1.054,0.341,1.943,0.98,2.592c0.607,0.665,1.408,0.964,2.405,0.964c2.259,0,4.502-1.061,6.818-3.166
			c2.3-2.154,3.49-3.207,3.514-3.207c0.268,0.033,0.43,0.13,0.624,0.227c0.105,0.089,0.179,0.243,0.179,0.454
			c0,1.013-1.304,2.552-3.912,4.471c-2.566,2.03-4.858,2.995-6.875,2.995c-1.894,0-3.263-0.438-4.283-1.312
			c-0.956-0.924-1.457-2.203-1.457-3.919c0-0.633,0.178-1.45,0.413-2.446c0.268-1.003,0.713-2.316,1.336-3.936
			c-2.704,2.219-5.676,5.085-8.939,8.601c-3.24,3.514-6.957,7.83-11.159,13.061l-9.483,0.947l17.629-25.929l0.551-0.842
			c2.535-3.676,3.773-6.064,3.773-7.167c0-0.615-0.138-1.077-0.413-1.353c-0.325-0.273-0.777-0.411-1.45-0.411
			c-1.441,0-3.368,0.892-5.661,2.729c-2.307,1.846-5.724,5.101-10.251,9.847c-0.907,0.972-2.009,2.21-3.295,3.742
			c-1.546,1.845-2.559,2.784-3.061,2.784c-0.178,0-0.332-0.049-0.454-0.162c-0.17-0.113-0.17-0.226-0.17-0.34
			c0-0.348,0.17-0.851,0.599-1.45c0.422-0.591,1.247-1.611,2.486-3.012l4.316-4.633c4.356-4.591,7.644-7.659,9.887-9.279
			c2.235-1.587,4.292-2.381,6.13-2.381c1.547,0,2.842,0.519,3.814,1.629c1.012,1.101,1.49,2.452,1.49,4.088
			c0,2.154-0.38,4.332-1.214,6.535c-0.826,2.212-2.592,5.555-5.28,10.057l0.138-0.138c4.916-4.655,8.769-8.145,11.523-10.511
			c1.74-4.525,3.393-7.579,5.004-9.255c1.612-1.611,3.669-2.405,6.154-2.405c0.843,0,1.596,0.203,2.195,0.616
			c0.599,0.437,0.907,0.939,0.907,1.539C-197.183,47.465-199.831,50.177-205.038,53.982L-205.038,53.982z M-153.447,53.982
			c-0.924,0.673-1.579,1.15-2.074,1.497c-1.992,1.451-3.449,2.956-4.308,4.519c-0.842,1.563-1.271,3.328-1.271,5.353
			c0,1.054,0.325,1.943,0.948,2.592c0.681,0.665,1.466,0.964,2.42,0.964c2.26,0,4.527-1.061,6.852-3.166
			c2.292-2.154,3.465-3.207,3.53-3.207c0.235,0.033,0.445,0.13,0.551,0.227c0.138,0.089,0.227,0.243,0.227,0.454
			c0,1.013-1.32,2.552-3.896,4.471c-2.575,2.03-4.875,2.995-6.923,2.995c-1.846,0-3.28-0.438-4.235-1.312
			c-0.988-0.924-1.465-2.203-1.465-3.919c0-0.633,0.13-1.45,0.413-2.446c0.219-1.003,0.688-2.316,1.304-3.936
			c-2.713,2.219-5.677,5.085-8.875,8.601c-3.271,3.514-7.004,7.83-11.231,13.061l-9.442,0.947l17.636-25.929l0.502-0.842
			c2.534-3.676,3.764-6.064,3.764-7.167c0-0.615-0.104-1.077-0.42-1.353c-0.259-0.273-0.753-0.411-1.433-0.411
			c-1.41,0-3.328,0.892-5.629,2.729c-2.339,1.846-5.74,5.101-10.234,9.847c-0.972,0.972-2.033,2.21-3.336,3.742
			c-1.539,1.845-2.542,2.784-3.02,2.784c-0.171,0-0.356-0.049-0.502-0.162c-0.097-0.113-0.17-0.226-0.17-0.34
			c0-0.348,0.227-0.851,0.624-1.45c0.429-0.591,1.263-1.611,2.494-3.012l4.292-4.633c4.373-4.591,7.644-7.659,9.896-9.279
			c2.259-1.587,4.299-2.381,6.162-2.381c1.554,0,2.793,0.519,3.798,1.629c1.021,1.101,1.481,2.452,1.481,4.088
			c0,2.154-0.388,4.332-1.239,6.535c-0.793,2.212-2.583,5.555-5.231,10.057l0.106-0.138c4.883-4.655,8.77-8.145,11.555-10.511
			c1.693-4.525,3.394-7.579,4.989-9.255c1.594-1.611,3.66-2.405,6.146-2.405c0.834,0,1.62,0.203,2.17,0.616
			c0.624,0.437,0.923,0.939,0.923,1.539C-145.601,47.465-148.216,50.177-153.447,53.982L-153.447,53.982z M-88.124,65.74
			c-0.98,1.198-2.543,2.867-4.681,4.939c-4.777,4.818-8.317,7.983-10.607,9.457c-2.251,1.426-4.349,2.154-6.382,2.154
			c-1.773,0-3.158-0.551-4.138-1.701c-0.907-1.117-1.409-2.777-1.409-4.931c0-0.575,0.049-1.222,0.13-1.936
			c0.089-0.729,0.276-1.765,0.502-3.157c-3.069,3.871-6.057,6.811-8.948,8.763c-2.891,1.975-5.604,2.962-8.122,2.962
			c-2.437,0-4.348-1.215-5.733-3.628c-1.384-2.38-2.081-5.732-2.081-10.008c0-1.036,0.048-2.065,0.218-3.126
			c0.154-1.037,0.381-2.065,0.664-3.045c-0.551,0.817-1.06,1.441-1.563,1.896c-0.469,0.486-0.875,0.696-1.248,0.696
			c-0.315,0-0.494-0.049-0.639-0.162c-0.09-0.048-0.13-0.161-0.13-0.34c0-0.348,0.542-1.223,1.668-2.574
			c1.175-1.353,2.729-2.98,4.665-4.939c4.275-4.18,8.494-7.41,12.753-9.693c4.283-2.284,8.179-3.418,11.709-3.418
			c2.186,0,3.911,0.583,5.19,1.7c1.312,1.102,1.984,2.624,1.984,4.494c0,0.437-0.049,0.883-0.146,1.361
			c-0.098,0.486-0.226,0.987-0.405,1.57l5.539-8.025l8.964-0.518l-14.899,23.087c-2.235,3.385-3.587,5.749-4.194,7.052
			c-0.559,1.304-0.859,2.438-0.859,3.378c0,0.729,0.171,1.28,0.479,1.618c0.308,0.309,0.883,0.486,1.586,0.486
			c1.134,0,2.965-0.955,5.394-2.866c2.437-1.879,5.563-4.705,9.256-8.494c1.085-1.029,2.315-2.34,3.691-3.879
			c1.385-1.514,2.244-2.251,2.56-2.251c0.227,0,0.429,0.048,0.566,0.113c0.162,0.072,0.21,0.227,0.21,0.438
			C-86.578,63.676-87.096,64.525-88.124,65.74L-88.124,65.74z M-109.534,59.885c1.983-3.781,3.028-7.004,3.028-9.741
			c0-1.183-0.445-2.178-1.304-2.971c-0.883-0.787-1.936-1.198-3.183-1.198c-2.194,0-4.583,0.938-7.199,2.85
			c-2.624,1.887-5.215,4.543-7.733,7.96c-2.511,3.441-4.429,6.892-5.855,10.332c-1.384,3.418-2.113,6.284-2.113,8.657
			c0,1.254,0.299,2.275,0.875,2.987c0.518,0.762,1.368,1.148,2.388,1.148c1.466,0,3.345-0.76,5.588-2.234
			c2.21-1.49,4.55-3.562,6.98-6.193C-114.385,67.538-111.567,63.651-109.534,59.885L-109.534,59.885z M-41.612,53.982
			c-0.858,0.673-1.554,1.15-2.056,1.497c-1.984,1.451-3.394,2.956-4.276,4.519c-0.858,1.563-1.288,3.328-1.288,5.353
			c0,1.054,0.332,1.943,0.98,2.592c0.623,0.665,1.457,0.964,2.437,0.964c2.219,0,4.494-1.061,6.834-3.166
			c2.243-2.154,3.442-3.207,3.466-3.207c0.307,0.033,0.477,0.13,0.615,0.227c0.122,0.089,0.195,0.243,0.195,0.454
			c0,1.013-1.289,2.552-3.896,4.471c-2.583,2.03-4.875,2.995-6.907,2.995c-1.887,0-3.296-0.438-4.251-1.312
			c-0.955-0.924-1.458-2.203-1.458-3.919c0-0.633,0.122-1.45,0.429-2.446c0.243-1.003,0.696-2.316,1.288-3.936
			c-2.673,2.219-5.636,5.085-8.907,8.601c-3.256,3.514-6.98,7.83-11.159,13.061l-9.49,0.947l17.612-25.929l0.55-0.842
			c2.486-3.676,3.773-6.064,3.773-7.167c0-0.615-0.146-1.077-0.404-1.353c-0.308-0.273-0.794-0.411-1.434-0.411
			c-1.457,0-3.344,0.892-5.667,2.729c-2.325,1.846-5.742,5.101-10.228,9.847c-0.964,0.972-2.065,2.21-3.353,3.742
			c-1.531,1.845-2.542,2.784-3.045,2.784c-0.162,0-0.324-0.049-0.446-0.162c-0.129-0.113-0.227-0.226-0.227-0.34
			c0-0.348,0.227-0.851,0.648-1.45c0.412-0.591,1.23-1.611,2.47-3.012l4.324-4.633c4.349-4.591,7.668-7.659,9.928-9.279
			c2.202-1.587,4.259-2.381,6.097-2.381c1.58,0,2.842,0.519,3.822,1.629c1.005,1.101,1.506,2.452,1.506,4.088
			c0,2.154-0.405,4.332-1.247,6.535c-0.761,2.212-2.55,5.555-5.28,10.057l0.146-0.138c4.924-4.655,8.746-8.145,11.515-10.511
			c1.701-4.525,3.442-7.579,5.021-9.255c1.604-1.611,3.652-2.405,6.138-2.405c0.883,0,1.628,0.203,2.203,0.616
			c0.624,0.437,0.931,0.939,0.931,1.539C-33.7,47.465-36.356,50.177-41.612,53.982L-41.612,53.982z M45.989,0.035L8.925,63.302
			c-2.34,3.952-4.032,7.055-5.109,9.395c-1.053,2.273-1.628,4.057-1.628,5.229c0,0.535,0.243,0.965,0.672,1.305
			c0.453,0.323,0.956,0.518,1.595,0.518c0.939,0,2.753-1.037,5.336-3.107c2.624-2.132,5.732-5.006,9.41-8.763
			c0.817-0.762,1.675-1.774,2.792-2.98c1.32-1.522,2.154-2.234,2.51-2.234c0.268,0,0.478,0.048,0.575,0.113
			c0.122,0.072,0.22,0.227,0.22,0.438c0,0.462-0.503,1.312-1.508,2.526c-1.027,1.198-2.63,2.867-4.736,4.939
			c-4.729,4.818-8.268,7.983-10.56,9.457c-2.291,1.426-4.396,2.154-6.405,2.154c-1.79,0-3.199-0.551-4.105-1.701
			c-0.98-1.117-1.458-2.777-1.458-4.931c0-0.575,0.073-1.222,0.122-1.936c0.114-0.729,0.283-1.765,0.542-3.157
			c-3.125,3.871-6.065,6.811-9.004,8.763c-2.891,1.975-5.572,2.962-8.098,2.962c-2.413,0-4.332-1.215-5.717-3.628
			c-1.408-2.38-2.097-5.732-2.097-10.008c0-1.036,0.089-2.065,0.235-3.126c0.122-1.037,0.356-2.065,0.624-3.045
			c-0.551,0.817-1.054,1.441-1.507,1.896c-0.502,0.486-0.931,0.696-1.288,0.696c-0.292,0-0.502-0.049-0.623-0.162
			c-0.073-0.048-0.17-0.161-0.17-0.34c0-0.348,0.599-1.223,1.725-2.574c1.166-1.353,2.721-2.98,4.607-4.939
			c4.275-4.18,8.535-7.41,12.811-9.693c4.251-2.284,8.146-3.418,11.685-3.418c2.17,0,3.919,0.583,5.231,1.7
			c1.263,1.102,1.911,2.624,1.911,4.494c0,0.437-0.048,0.883-0.121,1.361c-0.041,0.486-0.187,0.987-0.381,1.57L37.17,0.433
			L45.989,0.035L45.989,0.035z M4.051,47.173c-0.834-0.787-1.887-1.198-3.126-1.198c-2.227,0-4.615,0.938-7.214,2.85
			c-2.632,1.887-5.191,4.543-7.791,7.96c-2.437,3.441-4.421,6.892-5.83,10.332c-1.393,3.418-2.13,6.284-2.13,8.657
			c0,1.254,0.26,2.275,0.859,2.987c0.599,0.762,1.384,1.148,2.388,1.148c1.53,0,3.393-0.76,5.62-2.234
			c2.243-1.49,4.534-3.562,7.02-6.193c3.661-3.943,6.479-7.83,8.487-11.597c2.008-3.781,3.012-7.004,3.012-9.741
			C5.346,48.961,4.917,47.966,4.051,47.173L4.051,47.173z"/>
		<g>
			<g>
				<defs>
					<path id="SVGID_1_" d="M-152.233,266.886c3.588-11.386,8.795-17.104,15.58-17.104c3.061,0,6.479,0.811,10.228,2.389
						l15.078,7.087c13.11,5.977,25.475,10.266,37.16,12.882c11.644,2.615,24.284,3.976,37.953,3.976
						c23.467,0,45.784-3.887,66.886-11.595c21.12-7.741,39.784-18.689,55.963-32.877c19.733-17.516,35.055-39.8,45.946-66.806
						c10.9-27.012,16.325-56.164,16.325-87.575c0-22.796-2.964-44.359-9.038-64.684c-6.064-20.325-14.697-37.88-25.928-52.604
						c-14.98-19.644-34.504-34.737-58.586-45.248c-24.115-10.51-51.16-15.791-81.145-15.791c-21.799,0-42.48,2.818-62.021,8.423
						c-19.621,5.627-36.788,13.708-51.614,24.194c-5.782,4.05-10.567,6.065-14.325,6.065c-3.078,0-7.83-1.238-14.325-3.669
						l0.542,6.042c0.672,13.288,1.004,23.127,1.004,29.443c0,22.964-1.596,38.317-4.834,46.01
						c-2.915,7.021-7.377,11.986-13.409,14.868c-6.033,2.914-16.544,5.035-31.565,6.454v6.039h162.965v-6.039
						c-20.957,0-35.995-3.864-45.071-11.571c-9.118-7.686-13.669-20.27-13.669-37.623c0-18.737,5.013-34.966,15.063-48.666
						c7.353-9.782,16.713-17.515,28.115-23.119c11.434-5.595,23.572-8.429,36.544-8.429c32.836,0,60.691,15.797,83.495,47.338
						c11.774,16.301,20.689,35.128,26.835,56.407c6.138,21.33,9.2,43.962,9.2,68.012c0,50.327-12.787,95.025-38.334,134.146
						c-12.617,19.071-26.139,32.893-40.764,41.411c-14.552,8.472-31.945,12.738-52.213,12.738c-26.067,0-48.287-9.481-66.652-28.528
						c-18.39-19.014-33.476-48.012-45.201-86.92l-5.903,0.535l3.077,114.388H-152.233L-152.233,266.886z"/>
				</defs>
				<use xlink:href="#SVGID_1_"  overflow="visible" fill="#FFFFFF"/>
				<clipPath id="SVGID_2_">
					<use xlink:href="#SVGID_1_"  overflow="visible"/>
				</clipPath>
			</g>
			<g>
				<defs>
					<path id="SVGID_3_" d="M-32.963-218.413c-2.842-12.875-17.92,1.506-4.421,3.142c-12.09,6.445-30.407,18.657-47.347,19.814
						c-10.13,0.689-17.993-5.515-19.094-16.235c-1.044-9.798,6.479-16.875,14.333-12.972c5.716,3.701,2.211,18.736-4.737,14.762
						c1.546-1.095,2.939-5.807,0.421-7.036c-9.32,3.529-7.887,15.667,4.089,14.251c7.522-0.989,27.896-12.487,28.609-20.325
						c1.506-17.264-22.164-16.939-30.067-23.096c6.827-3.392,14.616,0.551,20.762,2.601c18.147,5.92,46.991,10.698,61.493-4.964
						c1.604-1.668,2.414-4.907,2.316-8.187C-0.873-235.588-18.744-224.105-32.963-218.413L-32.963-218.413z M-83.047-208.404
						c0.624-23.273-16.543-32.423-36.893-28.083c-17.313,3.651-26.584,21.491-36.285,32.973c-7.839-0.186-16.722-2.347-24.535,0.665
						c-0.543-12.812-5.856-23.078-11.208-29.986c9.773,1.823,16.843,8.794,24.276,14.373c17.702-8.519,27.621-28.511,54.692-27.919
						c18.316,0.371,37.759,6.51,43.435,24.793C-67.273-214.106-79.403-212.008-83.047-208.404L-83.047-208.404z M170.886-204.955
						c3.036-4.737,8.583-21.839-1.19-22.666c-9.969-0.833-15.823,9.662-21.483,14.002c-1.457-11.759-15.482-0.13-5.659,3.717
						c-20.317,17.749-59.169,23.305-84.257,11.021c-12.307-6.041-27.362-43.663-4.113-48.87c9.198-2.023,14.867,5.572,8.389,11.937
						c-1.005-3.466-3.038-5.765-6.503-5.669c-15.863,0.413-9.248,27.136-0.882,34.043c3.799,3.166,8.916,3.927,15.417,2.503
						c-6.979-21.347,31.469-15.24,16.391-1.952c0.551-1.336,1.837-5.604-0.672-6.794c-2.147,0.129-3.078,1.489-4.204,2.592
						c-1.772,11.319,12.236,14.965,21.961,12.947c11.321-2.251,30.294-18.091,23.653-34.091
						c-2.121-4.979-16.892-15.198-19.596-3.789c-2.339,9.644,11.686,11.321,11.232,1.676c0.881,0.032,1.077,1.101,1.798,1.313
						c3.651,13.846-13.694,14.624-18.689,7.758c-15.436-7.782-35.865-1.265-53.575,3.304c-1.027-4.544-0.833-10.172,0.551-13.249
						c21.078,7.831,42.366-3.142,60.788-10.121c11.013-1.718,16.779,6.104,25.023,10.898c12.851,7.328,31.588-7.385,42.455,3.435
						C184.555-224.203,179.421-206.137,170.886-204.955L170.886-204.955z M-86.602-153.341c-3.514,3.481-6.778,8.364-11.799,5.062
						c-13.596-8.818-32.52-29.16-30.309-54.781c0.923-10.349,8.332-24.333,16.025-29.401c1.983-1.289,5.279-0.39,7.069-0.39
						C-128.151-211.53-105.939-161.665-86.602-153.341L-86.602-153.341z M39.681-223.604c-16.391-6.105-36.132-17.976-52.166-1.036
						c10.973-15.766,33.524-26.487,53.34-14.601C39.681-234.804,39.251-229.62,39.681-223.604L39.681-223.604z M182.384-222.342
						c0.43-3.052-0.315-6.178-1.481-8.081c14.219-9.449,43.63-10.786,43.127,15.313
						C221.333-235.766,194.069-231.386,182.384-222.342L182.384-222.342z M-130.037-159.803
						c-8.859-13.296-32.301-43.258-54.862-27.459c-8.017,5.578,1.328,14.413-0.647,22.293c-4.179-2.787-6.147-8.615-7.442-14.739
						c0.972-12.583,8.17-18.898,19.701-20.914c28.099-4.853,39.347,19.806,51.379,37.208
						C-124.061-161.665-126.499-160.151-130.037-159.803L-130.037-159.803z M172.23-217.588
						c-19.879,23.371-48.416,35.791-84.734,39.783c-17.563,1.952-37.968,2.778-48.051,16.593
						c-2.389-9.782-6.356-17.978-13.336-22.908c-19.904-13.951-54.579,0.462-39.833,34.568c-4.162-3.028-12.405-7.021-16.753-0.469
						c-3.726-36.577,27.192-47.461,53.889-39.744c31.775,9.086,81.357,14.853,112.711-3.726
						c13.791-8.12,21.532-21.969,34.576-30.852C173.235-226.106,172.684-219.466,172.23-217.588L172.23-217.588z M-174.023-127.646
						c-10.519-11.151-11.661-40.075-7.28-57.762c5.223-1.602,12.559-2.753,17.612-1.417
						C-171.886-172.021-181.255-151.657-174.023-127.646L-174.023-127.646z M-92.092-163.018c-3.19-1.742-5.604-4.511-7.693-7.734
						c5.426-5.991,9.774-13.183,14.049-20.437c4.665-0.373,10.924-1.402,15.248-3.516
						C-74.188-181.797-82.982-171.446-92.092-163.018L-92.092-163.018z M-50.09-147.592c1.741-3.838,0.858-11.158-2.251-13.247
						c-20.211-0.858-32.245,15.612-44.731,26.512c-1.968-1.053-3.604-2.503-4.811-4.519c25.564-20.229,48.254-43.307,82.879-54.255
						c0.259-0.081,0.332,0.098,0.551,0.122C-33.271-182.169-35.207-158.297-50.09-147.592L-50.09-147.592z M50.692-131.736
						c-1.019-6.033-6.258-8.835-11.586-8.762c-13.952,0.25-22.868,18.77-37.371,21.029c-22.487,3.49-39.71-1.125-57.655-6.341
						c12.852-13.312,30.108-1.263,49.987-3.052c13.45-1.224,29.152-9.597,26.31-26.958c-1.814-11.223-12.479-19.418-22.731-11.709
						c-2.048,2.803-2.745,7.766-0.996,11.354c5.036,10.261,19.515,1.806,6.397-2.641c9.247-11.385,14.074,14.641-0.858,13.951
						c-16.365-0.824-17.661-32.113-0.956-35.53c16.892-3.516,30.375,11.149,30.325,32.041
						C40.636-153.534,55.502-145.098,50.692-131.736L50.692-131.736z M-172.712-154.571c-0.349-1.36,0.299-8.195,0.883-7.791
						c8.008,5.813,14.269,10.495,26.714,9.605c10.025-0.665,18.567-5.54,26.601-8.633c3.028,2.38,6.429,5.215,8.632,8.129
						C-128.709-145.479-156.63-145.737-172.712-154.571L-172.712-154.571z M-119.52-146.563c2.698-0.525,4.989-1.538,7.296-2.503
						c0.041-0.024,0.154-0.024,0.227-0.024c10.819,19.119,31.954,32.44,52.343,40.359c14.147,5.53,43.728,23.144,48.821-5.645
						c3.822-0.3,8.769-1.246,12.356-1.676C-8.824-59.215-90.319-108.156-119.52-146.563L-119.52-146.563z M-86.116-141.049
						c5.522-14.511,16.827,1.813,26.205,2.818C-67.427-127.413-78.108-136.271-86.116-141.049L-86.116-141.049z M-44.648-135.267
						c-5.11,1.724-10.77,4.566-15.313,7.416c-5.474,3.466-12.463,10.948-17.645,6.657c17.24-14.964,55.372-36.366,71.955-10.356
						C-20.987-130.133-27.635-141.242-44.648-135.267L-44.648-135.267z M-167.052-73.305c-2.891-10.77,2.916-21.717,7.863-27.774
						c12.341-15.224,34.439-17.346,50.457-27.718c2.381,1.514,1.173,2.688,3.312,4.478c-1.636,3.466-6.98,5.264-7.313,9.441
						c-1.798,20.228,24.706-2.688,27.621,6.332C-105.615-88.139-161.263-109.209-167.052-73.305L-167.052-73.305z M-45.765-186.437
						c11.109-12.77,20.333-29.961,40.787-34.132c-9.629,13.864,15.677,9.426,4.924-1.699c15.385-3.548,28.05,4.77,37.564,13.013
						C6.513-209.166-19.91-195.595-45.765-186.437L-45.765-186.437z"/>
				</defs>
				<use xlink:href="#SVGID_3_"  overflow="visible" fill="#FFFFFF"/>
				<clipPath id="SVGID_4_">
					<use xlink:href="#SVGID_3_"  overflow="visible"/>
				</clipPath>
			</g>
			<g>
				<defs>
					<path id="SVGID_5_" d="M-176.275,278.779c-39.945,4.057-47.784-38.665-75.064-57.321c2.591,5.991,13.798,13.725,11.531,24.787
						c-0.421,1.933-2.987,3.125-4.801,2.938c-10.949-1.006-13.021-26.261-21.293-35.873c-6.094-7.102-21.577-14.059-28.208-4.023
						c-5.937,8.866,10.539,12.654,11.685,3.813c6.417,8.696-16.892,13.912-19.103,4.292c-0.862-8.446,4.373-9.168,6.713-13.572
						c-15.543,1.888-27.577,15.159-28.196,37.006c-0.323,9.143,3.535,31.402-5.506,31.361c-5.414,0-4.268-16.114-4.635-22.081
						c-3.957,26.536,5.555,50.61,18.813,60.675c8.592,6.536,13.382,11.523,26.978,10.356c8.519-0.695,18.665-11.417,23.252-17.586
						c16.681-22.415,7.862-55.844-10.851-68.992c-9.714-6.883-34.456,0.023-30.144,15.983c1.923,7.361,15.15,5.507,11.709-4.729
						c21.807,12.763-22.017,45.104-25.385,16.455c-2.762-23.257,18.11-33.354,33.378-35.631c21.936-3.305,39.431,20.205,36.2,50.319
						c-1.717,16.009-11.571,23.921-16.009,37.912c8.365-5.279,15.523-14.186,19.329-25.28c1.604-4.519,4.591-17.977,8.251-18.754
						c6.77-1.426,13.798,12.422,12.681,22.569c-0.858,8.582-7.75,10.275-10.616,16.268c13.126-6.008,39.784-26.447,49.136-4.293
						c5.021,11.571-1.117,24.035-10.414,24.82c-6.477,0.552-14.032-8.309-6.404-12.008c0.858,13.457,13.976,2.865,8.519-6.06
						c-2.163-3.513-9.92-7.166-15.232-6.566c-27.458,3.377-54.854,31.151-88.584,19.418c-23.106-8.033-45.123-27.102-43.978-61.339
						c-2.89,4.365-5.052,9.531-6.798,15.312c1.146,0.074,2.296,0.235,3.214,1.127c5.831,29.799-29.021,34.852-47.039,27.32
						c38.14-2.138,46.667-41.913,61.963-73.097c-18.066,34.778-44.302,68.158-91.415,63.615c-9.712-0.914-17.037-7.507-25.709-9.919
						c-9.045,5.401-25.208-12.398-9.26-12.235c-7.73-10.877-20.584-14.926-33.715-20.73c-1.555-0.641-4.685-3.555-4.433-6.534
						c0.619-7.418,14.441,2.396,16.988,3.845c-5.83-10.097-14.648-22.423-24.791-28.389c-13.754-8.204-44.674-23.856-59.093-8.845
						c-1.627,1.678-3.537,6.295-3.214,9.71c0.393,4.576,7.515,7.354,5.354,0.898c5.555-2.089,10.551,5.555,6.883,11.086
						c-8.304,12.51-26.585-5.732-17.718-20.552c3.461-5.91,12.972-8.94,20.057-9.488c34.161-2.642,58.724,22.421,74.888,44.179
						c-3.021-13.199,3.404-29.085,3.692-40.601c0.166-4.616-3.92-10.172-3.012-12.787c1.89-5.304,13.299,4.106,13.693,6.973
						c6.607-11.403,18.065,1.977,7.777,9.231c8.973-1.054,27.97-9.507,14.949-19.167c3.631-2.414,7.453,2.064,9.02,5.004
						c3.883,7.045-0.801,11.426-0.704,16.899c0.044,2.819,5.206,7.708,6.425,10.301c8.928,20.341-0.048,54.181-20.981,37.694
						c-5.146-4.269-11.049-18.406-3.178-24.107c6.802-4.932,16.167,3.337,14.17,10.56c-4.943-9.15-8.194,4.778-3.008,8.356
						c7.981,5.556,14.969-8.146,14.192-16.891c-2.676-31.111-55.749-33.468-48.267,8.356c3.656,20.472,19.746,24.334,31.958,33.815
						c5.854,4.566,10.657,14.138,21.855,11.295c-10.875-8.129,3.822-8.492,10.248-4.25c-7.289-5.069-4.636-13.564,5.523-12.438
						c9.26,1.037,24.754,6.057,31.933,0c-10.834,3.32-37.047-3.95-28.398-19.628c2.081-3.677,9.989-4.988,13.296-1.587
						c-11.049,7.952,8.126,14.874,14.758,17.4c-4.972-14,11.552-15.863,18.758-20.566c6.571-4.154,10.559-10.907,14.6-15.766
						c-7.936,2.153-11.519,17.556-21.458,14.202c4.336-15.127,19.309-16.778,27.338-27.32
						c-16.799,15.635-66.943,42.933-81.126,5.676c-11.183-29.41,19.046-51.542,33.69-31.127c2.94,4.041,6.43,12.785,4.114,20.495
						c7.344-2.818,16.689-32.577,31.754-20.981c8.243,6.405-9.271,10.405-12.401,13.11c-7.526,6.445-27.503,30.665-39.391,17.377
						c-5.235-5.863-0.919-19.102,7.441-17.377c-2.34,11.936,10.851,2.267,7.802-8.843c-1.765-6.397-12.077-10.561-18.625-8.566
						c-15.414,4.802-7.409,43.645,0.717,50.123c13.499,10.787,34.646-4.438,44.853-8.565c-3.54-8.886,7.81-9.719,13.523-11.775
						c21.288-7.506,35.293-32.423,64.59-26.351c11.944,2.431,20.884,12.139,34.075,12.18c14.195,0.048,24.633-7.498,36.196-10.14
						c25.629-5.975,53.023,7.661,56.076,34.068C-145.277,257.216-161.48,277.218-176.275,278.779L-176.275,278.779z
						 M-194.883,208.985c-18.115,12.473,13.305,47.907,13.652,14.975c23.84,7.084,9.264,43.686-14.923,36.682
						c-13.726-3.927-23.872-32.837-15.24-51.169c-4.867,9.15-29.75,23.118-30.707,3.4c-13.742-1.522-24.208-13.158-37.986-10.835
						c26.229,7.937,42.934,32.407,60.708,51.469c6.033,6.445,13.717,16.707,22.358,18.908c17.855,4.574,34.844-4.154,40.633-19.807
						C-145.115,221.941-172.559,193.697-194.883,208.985L-194.883,208.985z M-288.079,313.461
						c-3.534,0.324-4.084-11.061,1.219-9.433C-283.443,305.017-285.019,313.261-288.079,313.461L-288.079,313.461z
						 M-298.043,311.259C-308.46,313.138-295.055,295.737-298.043,311.259L-298.043,311.259z M-276.009,308.96
						c-8.292,2.187-6.239-16.316,0.705-16.041C-269.522,293.259-271.887,307.907-276.009,308.96L-276.009,308.96z M-311.854,304.49
						C-315.866,297.414-305.651,300.977-311.854,304.49L-311.854,304.49z M-318.951,297.688c-1.121-1.094-1.072-4.331,0.171-5.167
						C-316.129,292.052-316.214,298.336-318.951,297.688L-318.951,297.688z M-265.365,295.881
						c-7.647,0.917-5.101-19.198,2.688-13.061C-258.563,286.027-260.069,295.242-265.365,295.881L-265.365,295.881z
						 M-325.352,286.222C-327.324,280.132-319.975,284.05-325.352,286.222L-325.352,286.222z M-429.511,278.066
						c-2.131,0.965-3.803-1.108-3.539-3.86C-432.378,267.023-424.341,275.743-429.511,278.066L-429.511,278.066z M-261.98,277.856
						c-8.461,2.275-11.401-15.216-4.628-16.963C-259.737,259.192-253.81,275.63-261.98,277.856L-261.98,277.856z M-436.621,276.044
						c-0.073,0.363-0.624,1.174-1.77,1.351C-445.237,278.295-434.435,266.796-436.621,276.044L-436.621,276.044z M-425.426,274.707
						C-429.848,263.257-416.54,271.89-425.426,274.707L-425.426,274.707z M-446.383,269.476c0.19,0,0.141-0.275,0.19-0.453
						C-441.006,267.161-445.282,276.844-446.383,269.476L-446.383,269.476z M-416.038,266.106c-0.38,0.917-1.348,1.442-2.627,1.539
						c-1.243,0.179-1.721,0.049-2.316-0.622C-427.649,259.515-411.438,255.524-416.038,266.106L-416.038,266.106z M-449.415,265.881
						c-1.078,0.915-2.474-0.551-1.758-2.025C-450.1,263.079-448.772,264.496-449.415,265.881L-449.415,265.881z M-454.914,259.128
						c-0.369-0.939-0.097-2.203,0.384-2.705C-451.423,255.727-452.788,261.143-454.914,259.128L-454.914,259.128z M-414.973,257.539
						c-5.879,0.114-5.927-14.915,1.972-13.084C-408.963,247.143-410.158,257.451-414.973,257.539L-414.973,257.539z
						 M-457.565,246.94c0.287-0.486,0.906-0.534,1.578-0.438C-454.088,248.504-457.83,250.285-457.565,246.94L-457.565,246.94z
						 M-483.11,233.441c-4.084,1.377-10.086-2.948-7.454-8.146C-486.625,217.343-475.081,230.574-483.11,233.441L-483.11,233.441z
						 M-325.688,213.538c-2.786,7.206-11.875,7.206-19.175,9.036c-8.219,2.009-13.73,7.839-21.123,8.13
						c11.026-7.393,20.873-24.561,35.307-25.732C-326.129,204.629-323.68,208.259-325.688,213.538L-325.688,213.538z
						 M-494.269,222.574c-2.7,0.696-7.336-2.34-6.955-6.073C-500.221,207.399-484.782,220.145-494.269,222.574L-494.269,222.574z
						 M-507.815,214.219c-13.05,4.437,2.939-16.592,2.72-3.191C-505.139,212.453-506.313,213.739-507.815,214.219L-507.815,214.219z
						 M-522.679,202.954c1.024,0,2.004,0,3.02,0C-512.678,210.477-528.954,211.148-522.679,202.954L-522.679,202.954z
						 M-559.417,203.568C-555.058,201.359-558.571,209.473-559.417,203.568L-559.417,203.568z M-533.886,201.554
						c1.47-0.666,3.033,0.209,3.583,1.4C-530.469,207.156-535.954,204.905-533.886,201.554L-533.886,201.554z M-551.976,202.954
						C-547.983,199.317-549.753,208.37-551.976,202.954L-551.976,202.954z M-543.254,202.954c0.146-2.066,2.988-2.066,2.988,0.227
						C-540.732,204.744-542.753,204.258-543.254,202.954L-543.254,202.954z"/>
				</defs>
				<use xlink:href="#SVGID_5_"  overflow="visible" fill="#FFFFFF"/>
				<clipPath id="SVGID_6_">
					<use xlink:href="#SVGID_5_"  overflow="visible"/>
				</clipPath>
			</g>
			<path fill="#FFFFFF" d="M-183.044-219.855c-4.195,13.167-10.405,19.734-18.536,19.734c-3.619,0-7.652-0.891-12.114-2.713
				l-17.896-8.242c-15.604-6.883-30.31-11.854-44.18-14.917c-13.859-3.027-28.868-4.567-45.08-4.567
				c-27.92,0-54.456,4.47-79.522,13.41c-25.091,8.924-47.278,21.598-66.49,38.042c-23.475,20.293-41.682,46.059-54.598,77.317
				c-12.976,31.24-19.426,65.023-19.426,101.325c0,26.423,3.559,51.371,10.762,74.903c7.159,23.53,17.446,43.824,30.816,60.861
				c17.777,22.754,41.014,40.18,69.639,52.343c28.654,12.186,60.77,18.292,96.382,18.292c25.88,0,50.493-3.255,73.753-9.757
				c23.296-6.495,43.727-15.792,61.339-28.001c6.843-4.666,12.56-6.98,17.014-6.98c3.619,0,9.271,1.4,16.98,4.242l-0.615-6.997
				c-0.793-15.434-1.215-26.77-1.215-34.09c0-26.585,1.896-44.359,5.757-53.268c3.474-8.097,8.763-13.837,15.953-17.181
				c7.167-3.354,19.701-5.814,37.468-7.492v-6.979h-193.639v6.979c24.864,0,42.748,4.495,53.566,13.435
				c10.818,8.924,16.244,23.41,16.244,43.516c0,21.72-5.976,40.474-17.896,56.271c-8.721,11.41-19.832,20.316-33.407,26.812
				c-13.572,6.478-28.03,9.733-43.416,9.733c-39.071,0-72.129-18.253-99.26-54.772c-13.957-18.853-24.589-40.634-31.889-65.283
				c-7.276-24.682-10.907-50.9-10.907-78.7c0-58.238,15.17-109.965,45.52-155.231c15.005-22.107,31.156-38.06,48.444-47.905
				c17.289-9.831,37.97-14.786,62.044-14.786c30.97,0,57.396,11.02,79.259,33.038c21.839,21.985,39.768,55.549,53.719,100.571
				l6.98-0.599l-3.635-132.364H-183.044L-183.044-219.855z"/>
		</g>
	</g>
	<g>
		<path fill="#FFFFFF" d="M-488.167,399.589l1.417,17.329h-1.417c-1.429-4.324-3.279-7.572-5.547-9.76
			c-3.267-3.157-7.461-4.734-12.591-4.734c-6.992,0-12.309,2.768-15.952,8.298c-3.049,4.674-4.575,10.228-4.575,16.683
			c0,5.237,1.012,10.017,3.036,14.332c2.025,4.317,4.678,7.482,7.957,9.498c3.279,2.01,6.647,3.013,10.102,3.013
			c2.024,0,3.98-0.258,5.871-0.77c1.89-0.51,3.713-1.271,5.465-2.267V435.34c0-2.754-0.21-4.559-0.627-5.401
			c-0.417-0.858-1.065-1.507-1.943-1.943c-0.879-0.453-2.422-0.673-4.637-0.673v-1.538h21.256v1.538h-1.012
			c-2.105,0-3.551,0.704-4.332,2.106c-0.539,0.995-0.81,2.972-0.81,5.911v16.802c-3.105,1.67-6.167,2.9-9.19,3.685
			c-3.025,0.784-6.386,1.175-10.082,1.175c-10.608,0-18.665-3.401-24.171-10.202c-4.129-5.104-6.195-10.981-6.195-17.655
			c0-4.825,1.163-9.458,3.482-13.886c2.752-5.263,6.53-9.313,11.336-12.146c4.021-2.35,8.774-3.523,14.252-3.523
			c1.996,0,3.814,0.162,5.445,0.485c1.631,0.324,3.947,1.036,6.944,2.146c1.51,0.565,2.522,0.849,3.037,0.849
			c0.514,0,0.952-0.233,1.316-0.71c0.364-0.471,0.586-1.395,0.668-2.771H-488.167z"/>
		<path fill="#FFFFFF" d="M-437.095,437.362h-21.257l-3.725,8.665c-0.918,2.13-1.376,3.726-1.376,4.778
			c0,0.834,0.397,1.571,1.194,2.211c0.798,0.632,2.519,1.037,5.162,1.23v1.497h-17.288v-1.497c2.296-0.404,3.778-0.932,4.454-1.578
			c1.377-1.296,2.903-3.928,4.575-7.896l19.313-45.185h1.417l19.11,45.67c1.539,3.676,2.936,6.058,4.19,7.142
			c1.255,1.102,3.005,1.718,5.244,1.847v1.497h-21.662v-1.497c2.187-0.112,3.665-0.47,4.434-1.094
			c0.769-0.622,1.154-1.376,1.154-2.267c0-1.19-0.539-3.07-1.62-5.628L-437.095,437.362z M-438.229,434.367l-9.312-22.187
			l-9.556,22.187H-438.229z"/>
		<path fill="#FFFFFF" d="M-354.969,455.744h-14.656l-18.584-25.668c-1.376,0.057-2.498,0.079-3.361,0.079
			c-0.352,0-0.728-0.007-1.133-0.022c-0.405-0.009-0.823-0.033-1.256-0.057v15.951c0,3.459,0.376,5.597,1.134,6.438
			c1.024,1.184,2.563,1.782,4.616,1.782h2.146v1.497h-23.524v-1.497h2.065c2.32,0,3.98-0.762,4.98-2.268
			c0.566-0.841,0.851-2.818,0.851-5.952v-35.467c0-3.457-0.377-5.595-1.134-6.438c-1.053-1.182-2.62-1.781-4.697-1.781h-2.065
			v-1.498h20.001c5.831,0,10.13,0.43,12.896,1.272c2.765,0.859,5.114,2.421,7.045,4.696c1.931,2.283,2.894,5.004,2.894,8.163
			c0,3.367-1.1,6.3-3.299,8.786c-2.198,2.484-5.607,4.234-10.223,5.264l11.337,15.749c2.592,3.611,4.818,6.023,6.68,7.206
			c1.863,1.183,4.292,1.944,7.288,2.268V455.744z M-393.959,427.525c0.515,0,0.959,0.009,1.336,0.017
			c0.377,0.015,0.688,0.023,0.932,0.023c5.235,0,9.183-1.134,11.842-3.401c2.66-2.268,3.988-5.157,3.988-8.664
			c0-3.426-1.073-6.21-3.219-8.365c-2.146-2.138-4.987-3.214-8.522-3.214c-1.567,0-3.685,0.251-6.357,0.769V427.525z"/>
		<path fill="#FFFFFF" d="M-295.516,455.744h-14.657l-18.584-25.668c-1.377,0.057-2.498,0.079-3.361,0.079
			c-0.352,0-0.728-0.007-1.133-0.022c-0.404-0.009-0.822-0.033-1.255-0.057v15.951c0,3.459,0.376,5.597,1.135,6.438
			c1.023,1.184,2.563,1.782,4.615,1.782h2.146v1.497h-23.524v-1.497h2.065c2.32,0,3.979-0.762,4.98-2.268
			c0.566-0.841,0.85-2.818,0.85-5.952v-35.467c0-3.457-0.376-5.595-1.133-6.438c-1.053-1.182-2.62-1.781-4.697-1.781h-2.065v-1.498
			h20.001c5.831,0,10.13,0.43,12.896,1.272c2.765,0.859,5.114,2.421,7.045,4.696c1.93,2.283,2.894,5.004,2.894,8.163
			c0,3.367-1.101,6.3-3.3,8.786c-2.198,2.484-5.607,4.234-10.224,5.264l11.337,15.749c2.592,3.611,4.818,6.023,6.681,7.206
			s4.292,1.944,7.288,2.268V455.744z M-334.507,427.525c0.515,0,0.959,0.009,1.336,0.017c0.376,0.015,0.689,0.023,0.931,0.023
			c5.236,0,9.184-1.134,11.843-3.401c2.66-2.268,3.987-5.157,3.987-8.664c0-3.426-1.073-6.21-3.219-8.365
			c-2.145-2.138-4.987-3.214-8.522-3.214c-1.566,0-3.685,0.251-6.357,0.769V427.525z"/>
		<path fill="#FFFFFF" d="M-254.162,437.362h-21.256l-3.725,8.665c-0.919,2.13-1.376,3.726-1.376,4.778
			c0,0.834,0.397,1.571,1.194,2.211c0.797,0.632,2.519,1.037,5.162,1.23v1.497h-17.288v-1.497c2.295-0.404,3.777-0.932,4.454-1.578
			c1.376-1.296,2.903-3.928,4.575-7.896l19.312-45.185h1.417l19.111,45.67c1.538,3.676,2.935,6.058,4.19,7.142
			c1.255,1.102,3.004,1.718,5.243,1.847v1.497h-21.661v-1.497c2.187-0.112,3.664-0.47,4.434-1.094
			c0.77-0.622,1.154-1.376,1.154-2.267c0-1.19-0.539-3.07-1.62-5.628L-254.162,437.362z M-255.295,434.367l-9.313-22.187
			l-9.555,22.187H-255.295z"/>
		<path fill="#FFFFFF" d="M-172.036,455.744h-14.657l-18.584-25.668c-1.377,0.057-2.498,0.079-3.36,0.079
			c-0.353,0-0.729-0.007-1.134-0.022c-0.405-0.009-0.821-0.033-1.255-0.057v15.951c0,3.459,0.377,5.597,1.134,6.438
			c1.024,1.184,2.563,1.782,4.616,1.782h2.146v1.497h-23.523v-1.497h2.064c2.32,0,3.98-0.762,4.98-2.268
			c0.567-0.841,0.85-2.818,0.85-5.952v-35.467c0-3.457-0.376-5.595-1.133-6.438c-1.053-1.182-2.62-1.781-4.697-1.781h-2.064v-1.498
			h20.001c5.831,0,10.13,0.43,12.896,1.272c2.766,0.859,5.114,2.421,7.045,4.696c1.932,2.283,2.896,5.004,2.896,8.163
			c0,3.367-1.102,6.3-3.301,8.786c-2.198,2.484-5.607,4.234-10.222,5.264l11.336,15.749c2.592,3.611,4.818,6.023,6.681,7.206
			c1.862,1.183,4.292,1.944,7.288,2.268V455.744z M-211.026,427.525c0.515,0,0.96,0.009,1.336,0.017
			c0.376,0.015,0.688,0.023,0.931,0.023c5.236,0,9.183-1.134,11.843-3.401c2.66-2.268,3.989-5.157,3.989-8.664
			c0-3.426-1.074-6.21-3.219-8.365c-2.146-2.138-4.989-3.214-8.523-3.214c-1.567,0-3.684,0.251-6.357,0.769V427.525z"/>
		<path fill="#FFFFFF" d="M-167.201,455.744v-1.497h2.064c2.32,0,3.964-0.745,4.936-2.228c0.599-0.892,0.891-2.891,0.891-5.992
			v-35.467c0-3.426-0.373-5.58-1.134-6.438c-1.052-1.182-2.615-1.781-4.693-1.781h-2.064v-1.498h22.353
			c8.203,0,14.446,0.934,18.721,2.795c4.276,1.86,7.726,4.972,10.317,9.312c2.608,4.341,3.919,9.361,3.919,15.062
			c0,7.644-2.332,14.025-6.964,19.151c-5.214,5.725-13.149,8.582-23.806,8.582H-167.201z M-151.537,451.777
			c3.434,0.754,6.309,1.133,8.633,1.133c6.259,0,11.45-2.193,15.579-6.6c4.129-4.404,6.204-10.364,6.204-17.895
			c0-7.58-2.074-13.563-6.204-17.937c-4.129-4.371-9.425-6.559-15.904-6.559c-2.429,0-5.198,0.396-8.308,1.174V451.777z"/>
		<path fill="#FFFFFF" d="M-101.234,434.085h20.94v6.114h-20.94V434.085z"/>
		<path fill="#FFFFFF" d="M-21.943,399.589l1.425,17.329h-1.425c-1.425-4.324-3.271-7.572-5.539-9.76
			c-3.271-3.157-7.466-4.734-12.6-4.734c-6.997,0-12.308,2.768-15.952,8.298c-3.045,4.674-4.567,10.228-4.567,16.683
			c0,5.237,1.005,10.017,3.029,14.332c2.024,4.317,4.68,7.482,7.952,9.498c3.288,2.01,6.656,3.013,10.105,3.013
			c2.024,0,3.984-0.258,5.879-0.77c1.878-0.51,3.709-1.271,5.458-2.267V435.34c0-2.754-0.21-4.559-0.631-5.401
			c-0.405-0.858-1.053-1.507-1.943-1.943c-0.875-0.453-2.414-0.673-4.632-0.673v-1.538h21.264v1.538h-1.021
			c-2.105,0-3.546,0.704-4.324,2.106c-0.551,0.995-0.81,2.972-0.81,5.911v16.802c-3.109,1.67-6.17,2.9-9.198,3.685
			c-3.029,0.784-6.382,1.175-10.074,1.175c-10.607,0-18.673-3.401-24.179-10.202c-4.13-5.104-6.188-10.981-6.188-17.655
			c0-4.825,1.15-9.458,3.482-13.886c2.754-5.263,6.527-9.313,11.337-12.146c4.017-2.35,8.762-3.523,14.252-3.523
			c1.991,0,3.806,0.162,5.441,0.485c1.636,0.324,3.952,1.036,6.948,2.146c1.506,0.565,2.511,0.849,3.029,0.849
			s0.956-0.233,1.312-0.71c0.373-0.471,0.599-1.395,0.68-2.771H-21.943z"/>
		<path fill="#FFFFFF" d="M4.634,417.564v8.341c3.109-5.555,6.284-8.341,9.554-8.341c1.491,0,2.721,0.453,3.693,1.36
			c0.972,0.899,1.458,1.943,1.458,3.134c0,1.053-0.356,1.944-1.053,2.673c-0.712,0.729-1.539,1.092-2.51,1.092
			c-0.955,0-2.008-0.47-3.191-1.392c-1.165-0.938-2.04-1.4-2.607-1.4c-0.485,0-1.003,0.268-1.571,0.81
			c-1.214,1.107-2.477,2.924-3.772,5.466v17.774c0,2.048,0.259,3.604,0.777,4.657c0.34,0.727,0.972,1.336,1.863,1.82
			c0.891,0.486,2.17,0.729,3.838,0.729v1.456h-18.98v-1.456c1.878,0,3.288-0.299,4.21-0.891c0.664-0.43,1.133-1.127,1.409-2.064
			c0.129-0.455,0.211-1.767,0.211-3.928V433.03c0-4.323-0.098-6.889-0.275-7.708c-0.162-0.824-0.487-1.423-0.972-1.806
			c-0.47-0.381-1.053-0.567-1.75-0.567c-0.842,0-1.781,0.202-2.833,0.607l-0.405-1.456l11.207-4.536H4.634z"/>
		<path fill="#FFFFFF" d="M43.68,417.564c5.621,0,10.123,2.138,13.524,6.397c2.882,3.644,4.34,7.822,4.34,12.552
			c0,3.32-0.811,6.682-2.396,10.08c-1.588,3.403-3.79,5.969-6.576,7.694c-2.802,1.724-5.912,2.591-9.328,2.591
			c-5.588,0-10.042-2.227-13.33-6.682c-2.785-3.756-4.161-7.967-4.161-12.631c0-3.402,0.841-6.785,2.525-10.139
			c1.685-3.369,3.904-5.846,6.657-7.45C37.688,418.367,40.604,417.564,43.68,417.564z M42.434,420.197
			c-1.442,0-2.866,0.429-4.324,1.271c-1.44,0.859-2.607,2.349-3.498,4.478s-1.328,4.868-1.328,8.219
			c0,5.395,1.069,10.058,3.206,13.969c2.155,3.912,4.973,5.872,8.487,5.872c2.624,0,4.777-1.085,6.477-3.24
			c1.702-2.153,2.56-5.87,2.56-11.133c0-6.585-1.425-11.767-4.26-15.548C47.843,421.491,45.397,420.197,42.434,420.197z"/>
		<path fill="#FFFFFF" d="M103.668,418.657v22.472c0,4.292,0.096,6.915,0.29,7.87c0.211,0.965,0.535,1.637,0.973,2.01
			c0.454,0.372,0.973,0.565,1.572,0.565c0.824,0,1.779-0.227,2.833-0.688l0.566,1.417l-11.093,4.575h-1.829v-7.855
			c-3.191,3.46-5.621,5.629-7.288,6.519c-1.668,0.891-3.434,1.337-5.295,1.337c-2.089,0-3.887-0.6-5.409-1.805
			c-1.524-1.198-2.593-2.737-3.176-4.633c-0.599-1.896-0.89-4.567-0.89-8.018v-16.558c0-1.758-0.194-2.973-0.565-3.646
			c-0.39-0.671-0.941-1.19-1.686-1.562c-0.744-0.357-2.089-0.535-4.033-0.504v-1.498h13.005v24.819c0,3.452,0.599,5.719,1.797,6.803
			c1.198,1.085,2.657,1.62,4.356,1.62c1.151,0,2.479-0.366,3.937-1.094c1.474-0.728,3.222-2.114,5.248-4.169v-21.015
			c0-2.105-0.389-3.531-1.15-4.269c-0.777-0.743-2.365-1.148-4.793-1.198v-1.498H103.668z"/>
		<path fill="#FFFFFF" d="M114.081,422.342l11.417-4.616h1.539v8.665c1.912-3.271,3.837-5.555,5.764-6.866
			c1.944-1.304,3.969-1.96,6.106-1.96c3.725,0,6.819,1.458,9.313,4.372c3.044,3.563,4.567,8.212,4.567,13.93
			c0,6.396-1.829,11.693-5.506,15.872c-3.029,3.433-6.835,5.141-11.417,5.141c-1.994,0-3.725-0.283-5.183-0.852
			c-1.084-0.402-2.299-1.214-3.644-2.428v11.297c0,2.533,0.163,4.153,0.47,4.834c0.308,0.697,0.843,1.237,1.62,1.644
			c0.761,0.405,2.169,0.606,4.194,0.606v1.499h-19.434v-1.499h1.004c1.491,0.032,2.753-0.26,3.806-0.85
			c0.518-0.301,0.906-0.777,1.198-1.433c0.276-0.665,0.422-2.349,0.422-5.046v-35.063c0-2.403-0.114-3.927-0.324-4.573
			c-0.212-0.648-0.551-1.135-1.037-1.459c-0.47-0.323-1.103-0.484-1.911-0.484c-0.648,0-1.475,0.193-2.48,0.566L114.081,422.342z
			 M127.038,428.779v13.849c0,2.995,0.13,4.964,0.372,5.91c0.374,1.563,1.296,2.939,2.77,4.131c1.474,1.19,3.319,1.781,5.57,1.781
			c2.688,0,4.876-1.053,6.56-3.158c2.187-2.754,3.271-6.633,3.271-11.62c0-5.669-1.248-10.025-3.725-13.078
			c-1.733-2.106-3.772-3.158-6.154-3.158c-1.295,0-2.575,0.325-3.838,0.973C130.892,424.893,129.273,426.352,127.038,428.779z"/>
	</g>
</g>
</svg>
