<?xml version="1.0" encoding="utf-8"?>
<!-- Generator: Adobe Illustrator 16.0.0, SVG Export Plug-In . SVG Version: 6.00 Build 0)  -->
<!DOCTYPE svg PUBLIC "-//W3C//DTD SVG 1.1//EN" "http://www.w3.org/Graphics/SVG/1.1/DTD/svg11.dtd">
<svg version="1.1" id="_x32_" xmlns="http://www.w3.org/2000/svg" xmlns:xlink="http://www.w3.org/1999/xlink" x="0px" y="0px"
	 width="700px" height="700px" viewBox="0 0 700 700" enable-background="new 0 0 700 700" xml:space="preserve">
<path fill="#FFFFFF" d="M571.578,3.446L129.382,2.827C59.938,2.728,3.553,58.958,3.457,128.41L2.834,570.612
	c-0.096,69.462,56.13,125.843,125.579,125.945l442.192,0.615c69.46,0.096,125.832-56.126,125.938-125.586l0.623-442.21
	C697.253,59.933,641.039,3.547,571.578,3.446z"/>
<path d="M602.855,314.267c0-113.138-113.441-205.195-252.862-205.195c-139.416,0-252.849,92.057-252.849,205.195
	c0,101.426,89.948,186.378,211.472,202.449c8.224,1.771,19.434,5.438,22.262,12.472c2.563,6.388,1.676,16.396,0.823,22.86
	c0,0-2.952,17.843-3.602,21.647c-1.1,6.391-5.092,25.001,21.894,13.63c26.993-11.362,145.61-85.74,198.661-146.813l-0.018,0.003
	C585.297,400.336,602.855,359.557,602.855,314.267z M251.556,380.769h-49.851c-7.25,0-13.15-5.904-13.15-13.154v-99.691
	c0-7.25,5.9-13.155,13.15-13.155c7.261,0,13.155,5.905,13.155,13.155v86.532h36.695c7.25,0,13.15,5.904,13.15,13.159
	C264.707,374.863,258.806,380.769,251.556,380.769z M303.109,367.613c0,7.25-5.896,13.154-13.147,13.154
	c-7.25,0-13.149-5.904-13.149-13.154v-99.691c0-7.25,5.899-13.155,13.149-13.155s13.147,5.905,13.147,13.155V367.613z
	 M423.1,367.613c0,5.668-3.617,10.691-9,12.473c-1.355,0.456-2.754,0.683-4.166,0.683c-4.113,0-8.041-1.964-10.517-5.266
	l-51.085-69.565v61.676c0,7.25-5.901,13.154-13.155,13.154c-7.255,0-13.15-5.904-13.15-13.154v-99.691
	c0-5.669,3.608-10.683,8.986-12.479c1.357-0.456,2.763-0.678,4.176-0.678c4.112,0,8.042,1.968,10.508,5.261l51.094,69.573v-61.676
	c0-7.25,5.899-13.155,13.151-13.155c7.258,0,13.157,5.905,13.157,13.155L423.1,367.613L423.1,367.613z M503.756,304.612
	c7.258,0,13.149,5.9,13.149,13.158c0,7.255-5.893,13.148-13.149,13.148h-36.699v23.534h36.699c7.241,0,13.149,5.904,13.149,13.159
	c0,7.25-5.908,13.154-13.149,13.154h-49.852c-7.241,0-13.149-5.904-13.149-13.154v-49.81c0-0.018,0-0.024,0-0.033
	c0-0.011,0-0.016,0-0.026V267.96c0-0.011,0-0.023,0-0.04c0-7.25,5.893-13.155,13.149-13.155h49.852
	c7.258,0,13.149,5.905,13.149,13.155c0,7.251-5.893,13.152-13.149,13.152h-36.699v23.539h36.699V304.612z"/>
</svg>
