<?xml version="1.0" encoding="utf-8"?>
<!-- Generator: Adobe Illustrator 16.0.0, SVG Export Plug-In . SVG Version: 6.00 Build 0)  -->
<!DOCTYPE svg PUBLIC "-//W3C//DTD SVG 1.1//EN" "http://www.w3.org/Graphics/SVG/1.1/DTD/svg11.dtd">
<svg version="1.1" id="_x32_" xmlns="http://www.w3.org/2000/svg" xmlns:xlink="http://www.w3.org/1999/xlink" x="0px" y="0px"
	 width="700px" height="700px" viewBox="0 0 700 700" enable-background="new 0 0 700 700" xml:space="preserve">
<g>
	<path fill="#FFFFFF" d="M544.641,693.487H155.358c-82.198,0-148.843-66.646-148.843-148.843V155.355
		c0-82.197,66.646-148.843,148.843-148.843h389.282c82.203,0,148.844,66.646,148.844,148.843v389.289
		C693.484,626.842,626.844,693.487,544.641,693.487"/>
	<path fill="#231815" d="M350.006,126.732c-123.11,0-223.265,100.161-223.265,223.266c0,123.116,100.155,223.27,223.265,223.27
		c23.664,0,46.982-3.695,69.357-10.99l13.266-4.68c4.742-1.537,7.357-6.613,5.836-11.294l-12.785-39.356
		c-1.486-4.59-6.453-7.318-11.311-5.726l-13.35,4.697c-16.436,5.367-33.594,8.083-51.013,8.083
		c-90.435,0-164.012-73.565-164.012-164.004c0-90.434,73.577-164,164.012-164c90.427,0,164,73.566,164,164
		c0,18.498-3.484,37.847-10.355,57.526c-4.99,14.289-16.58,25.913-25.838,25.913c-12.613,0-22.877-10.261-22.877-22.865V252.688
		c0-4.937-4.01-8.944-8.945-8.944h-41.371c-4.74,0-8.646,3.728-8.887,8.491l-0.18,3.482l-3.063-1.665
		c-15.795-8.53-33.668-13.048-51.681-13.048c-60.104,0-108.998,48.896-108.998,108.994c0,60.109,48.894,109.005,108.998,109.005
		c20.697,0,40.878-5.883,58.353-17.013l2.182-1.38l1.018,2.363c13.037,30.206,42.65,49.728,75.451,49.728
		c35.197,0,68.066-26.375,81.783-65.632c9.074-25.962,13.668-51.898,13.668-77.071C573.264,226.894,473.109,126.732,350.006,126.732
		 M394.869,349.998c0,29.707-24.166,53.882-53.881,53.882c-29.703,0-53.875-24.175-53.875-53.882
		c0-29.703,24.172-53.872,53.875-53.872C370.703,296.126,394.869,320.295,394.869,349.998"/>
</g>
</svg>
