<?xml version="1.0" encoding="utf-8"?>
<!-- Generator: Adobe Illustrator 16.0.0, SVG Export Plug-In . SVG Version: 6.00 Build 0)  -->
<!DOCTYPE svg PUBLIC "-//W3C//DTD SVG 1.1//EN" "http://www.w3.org/Graphics/SVG/1.1/DTD/svg11.dtd">
<svg version="1.1" id="レイヤー_1" xmlns="http://www.w3.org/2000/svg" xmlns:xlink="http://www.w3.org/1999/xlink" x="0px"
	 y="0px" width="1142.045px" height="798.742px" viewBox="-1358.292 314.543 1142.045 798.742"
	 enable-background="new -1358.292 314.543 1142.045 798.742" xml:space="preserve">
<g>
	<g>
		<path fill="#FFFFFF" d="M-1284.23,911.278c38.358,0,59.421,18.313,59.534,45.758c-0.113,23.189-14.881,37.16-30.324,41.561
			c29.129,4.36,46.903,25.688,46.894,52.797c0,30.886-23.006,51.414-63.755,51.414h-76.908l0.053-2.729h3.456
			c9.512,0,17.25-7.587,17.527-17.039V930.976c0-9.433-8.025-16.988-17.572-16.988h-3.412l-0.053-2.727L-1284.23,911.278z
			 M-1272.857,1092.824c28.083,0.126,44.216-15.742,44.199-43.401c0.018-40.688-34.687-47.282-61.086-47.353
			c-0.222,0-2.056,0-2.277,0v-3.509c0.221,0,1.987,0,2.197,0c16.764-0.073,44.509-4.825,44.607-39.575
			c-0.098-24.713-14.059-38.968-39.996-38.934h-24.697v172.771H-1272.857z"/>
		<path fill="#FFFFFF" d="M-1151.368,1102.807l0.054-2.749h3.652c10.178,0,18.385-6.611,18.589-14.803v-129.07
			c-0.204-8.225-8.423-14.821-18.607-14.821h-3.65l-0.047-2.765h61.975v2.765h-3.671c-9.956,0-18.083,6.346-18.564,14.328v129.775
			c0.321,8.087,8.51,14.591,18.573,14.591h3.651l0.044,2.749H-1151.368z"/>
		<path fill="#FFFFFF" d="M-871.635,1071.375c-12.739,16.118-39.402,35.265-77.938,35.265
			c-54.065-0.287-89.735-32.908-89.735-85.938c0-53.276,35.75-85.914,89.656-85.914c25.219,0,45.43,5.301,63.869,16.558
			l10.117,41.452h-2.401c-10.258-31.611-37.888-50.478-71.834-49.817c-41.785,0.83-69.639,29.536-69.639,77.741
			c0,47.976,27.996,77.688,69.969,77.688c22.783,0,43.003-7.02,60.139-23.703l0.442-36.363c0.106-6.876-4.734-10.762-12.73-10.741
			h-3.892v-2.731h50.186v2.731h-3.742c-7.987,0-12.51,3.845-12.472,10.852L-871.635,1071.375z"/>
		<path fill="#FFFFFF" d="M-667.367,1084.12c5.586,11.242,13.8,15.938,21.124,15.938h2.057v2.749h-56.19v-2.729h2.17
			c6.24,0,13.253-5.923,9.67-16.42l-14.946-36.415h-69.232l-15.052,35.675c-4.176,10.953,3.013,17.177,9.398,17.177h2.179v2.713
			h-52.133v-2.749h2.164c7.294,0,15.84-4.646,21.452-15.795l56.655-121.271c-0.09,0,9.971-21.026,10.53-28.186h2.579
			L-667.367,1084.12z M-706.848,1039.052l-30.745-74.885l-31.638,74.885H-706.848z"/>
		<path fill="#FFFFFF" d="M-562.969,1085.431c0.295,8.123,7.386,14.646,16.107,14.646h3.192l0.045,2.729h-56.167l0.045-2.729h3.18
			c8.787,0,15.922-6.598,16.099-14.804V956.185c-0.168-8.207-7.305-14.821-16.114-14.821h-3.166l-0.053-2.729h56.156l-0.046,2.729
			h-3.18c-8.642,0-15.681,6.367-16.1,14.361V1085.431z"/>
		<path fill="#FFFFFF" d="M-468.594,1082.774c8.944,8.706,27.595,18.792,39.519,19.077v2.731h-18.094
			c-8.246,0-27.339-0.835-40.21-15.496l-65.314-67.869l58.835-69.268c4.024-4.878,0.354-10.657-5.994-10.657h-2.429v-2.658h55.6
			v2.658h-1.091c-10.485,0.037-20.05,3.509-26.54,9.931l-59.678,63.735L-468.594,1082.774z"/>
		<path fill="#FFFFFF" d="M-225.749,938.635v2.729h-4.059c-7.076,0-12.836,4.895-13.156,11.523v92.104
			c0,38.205-25.981,61.648-68.205,61.648c-42.265,0-68.444-23.282-68.444-61.24v-92.191c-0.14-6.772-5.964-11.844-13.146-11.844
			h-4.06v-2.729h51.92v2.729h-4.049c-7.19,0-13.035,5.071-13.192,11.844v88.72c0,35.527,19.281,57.264,50.705,57.264
			c34.509,0,55.704-20.602,55.785-54.217v-91.941c-0.233-6.702-6.026-11.669-13.157-11.669h-4.057v-2.729H-225.749z"/>
	</g>
	<g>
		<path fill="#FFFFFF" d="M-787.271,321.188c-19.251,145.057-67.609,232.905-160.812,251.785
			c93.202,18.879,141.561,106.729,160.812,251.784c19.252-145.056,67.613-232.905,160.814-251.784
			C-719.657,554.094-768.019,466.245-787.271,321.188z M-787.271,750.744c-13.581-102.412-47.735-164.423-113.543-177.771
			c65.808-13.312,99.962-75.358,113.543-177.77c13.592,102.411,47.745,164.458,113.545,177.77
			C-739.525,586.321-773.679,648.332-787.271,750.744z"/>
		<path fill="#FFFFFF" d="M-816.592,649.028l0.04-2.608h3.464c9.626,0,17.408-6.245,17.589-14.024V510.295
			c-0.181-7.778-7.97-14.037-17.607-14.037h-3.453l-0.048-2.597h58.644v2.597h-3.475c-9.424,0-17.104,6.006-17.562,13.596v122.763
			c0.311,7.67,8.056,13.804,17.567,13.804h3.453l0.057,2.608H-816.592z"/>
		<path fill="#FFFFFF" d="M-856.421,545.24l2.317,0.032v3.098c0,8.57,5.565,15.479,12.474,15.652h108.707
			c6.917-0.173,12.507-7.082,12.507-15.685v-3.065l2.294-0.047v52.208h-2.294v-3.084c0-8.395-5.369-15.241-12.097-15.638h-109.291
			c-6.84,0.271-12.301,7.164-12.301,15.638v3.07l-2.317,0.049V545.24z"/>
	</g>
</g>
</svg>
