<?xml version="1.0" encoding="utf-8"?>
<!-- Generator: Adobe Illustrator 16.0.0, SVG Export Plug-In . SVG Version: 6.00 Build 0)  -->
<!DOCTYPE svg PUBLIC "-//W3C//DTD SVG 1.1//EN" "http://www.w3.org/Graphics/SVG/1.1/DTD/svg11.dtd">
<svg version="1.1" id="レイヤー_1" xmlns="http://www.w3.org/2000/svg" xmlns:xlink="http://www.w3.org/1999/xlink" x="0px"
	 y="0px" width="886.845px" height="135.645px" viewBox="9.686 -4.753 886.845 135.645"
	 enable-background="new 9.686 -4.753 886.845 135.645" xml:space="preserve">
<g>
	<path fill="#FFFFFF" d="M45.487,26.563c-3.194-7.289-6.22-12.743-9.076-16.365c-2.858-3.622-6.76-5.433-11.708-5.433V1.459h50.071
		v3.306c-5.714,0-9.493,0.563-11.337,1.687c-1.845,1.125-2.767,2.857-2.767,5.196c0,2.834,2.856,10.304,8.57,22.404l27.6,61.611
		l26.857-67.145c2.924-6.927,4.387-12.08,4.387-15.452c0-5.536-4.612-8.301-13.834-8.301V1.459h39.005v3.306
		c-4.185,0.135-7.401,1.327-9.65,3.576c-2.25,2.251-4.274,5.58-6.073,9.988c-5.039,12.146-10.167,24.766-15.386,37.857
		s-10.459,26.352-15.723,39.78c-5.264,13.43-9.471,24.306-12.619,32.629h-2.767L45.487,26.563z"/>
	<path fill="#FFFFFF" d="M175.321,65.565c0-5.668-0.405-9.524-1.215-11.572c-0.81-2.047-2.52-3.07-5.128-3.07
		c-1.62,0-4.297,0.451-8.03,1.35v-2.43l30.434-10.257v71.328c0,4.319,0.955,7.38,2.868,9.177c1.911,1.801,5.657,2.97,11.235,3.51
		v2.497h-44.538V123.6c5.713-0.54,9.537-1.697,11.472-3.476c1.934-1.776,2.902-4.846,2.902-9.211V65.565z M172.285,7.261
		c0-2.607,0.911-4.879,2.732-6.814c1.823-1.935,4.06-2.903,6.715-2.903c2.834,0,5.196,0.946,7.086,2.835
		c1.889,1.89,2.833,4.183,2.833,6.882c0,2.521-0.979,4.713-2.935,6.581c-1.958,1.868-4.285,2.8-6.984,2.8
		c-2.564,0-4.781-0.955-6.646-2.868C173.218,11.862,172.285,9.69,172.285,7.261z"/>
	<path fill="#FFFFFF" d="M294.763,26.563c-3.194-7.289-6.22-12.743-9.075-16.365c-2.858-3.622-6.761-5.433-11.709-5.433V1.459
		h50.071v3.306c-5.713,0-9.493,0.563-11.336,1.687c-1.846,1.125-2.767,2.857-2.767,5.196c0,2.834,2.856,10.304,8.57,22.404
		l27.6,61.611l26.857-67.145c2.925-6.927,4.387-12.08,4.387-15.452c0-5.536-4.612-8.301-13.833-8.301V1.459h39.004v3.306
		c-4.184,0.135-7.401,1.327-9.651,3.576c-2.25,2.251-4.274,5.58-6.072,9.988c-5.039,12.146-10.168,24.766-15.386,37.857
		c-5.219,13.091-10.459,26.352-15.723,39.78c-5.264,13.43-9.47,24.306-12.619,32.629h-2.767L294.763,26.563z"/>
	<path fill="#FFFFFF" d="M424.599,65.565c0-5.668-0.405-9.524-1.215-11.572c-0.809-2.047-2.52-3.07-5.128-3.07
		c-1.62,0-4.296,0.451-8.029,1.35v-2.43l30.434-10.257v71.328c0,4.319,0.954,7.38,2.867,9.177c1.912,1.801,5.656,2.97,11.237,3.51
		v2.497h-44.538V123.6c5.711-0.54,9.536-1.697,11.47-3.476c1.934-1.776,2.902-4.846,2.902-9.211V65.565z M421.563,7.261
		c0-2.607,0.911-4.879,2.731-6.814c1.823-1.935,4.06-2.903,6.716-2.903c2.833,0,5.195,0.946,7.085,2.835
		c1.89,1.89,2.834,4.183,2.834,6.882c0,2.521-0.979,4.713-2.935,6.581c-1.958,1.868-4.285,2.8-6.984,2.8
		c-2.565,0-4.782-0.955-6.647-2.868C422.496,11.862,421.563,9.69,421.563,7.261z"/>
	<path fill="#FFFFFF" d="M637.167,41.272h-4.186c-1.846-7.018-4.635-13.168-8.369-18.456c-3.734-5.286-8.367-9.39-13.9-12.316
		c-5.533-2.923-11.834-4.385-18.895-4.385c-14.803,0-25.869,5.422-33.201,16.262c-7.332,10.843-11,25.239-11,43.188
		c0,9.223,1.621,18.019,4.859,26.386c3.238,8.368,8.256,15.183,15.049,20.447c6.791,5.262,15.07,7.896,24.834,7.896
		c8.951,0,16.857-1.507,23.719-4.523c6.859-3.012,13.621-7.78,20.279-14.305l3.305,3.646c-5.758,7.062-13.16,12.743-22.199,17.037
		c-9.045,4.297-18.043,6.446-26.992,6.446c-12.375,0-23.484-2.554-33.338-7.661c-9.852-5.104-17.59-12.552-23.215-22.335
		c-5.623-9.785-8.434-21.358-8.434-34.719c0-9.313,1.572-17.951,4.723-25.913s7.646-14.902,13.498-20.818
		c5.848-5.915,12.707-10.47,20.582-13.666c7.871-3.193,16.508-4.791,25.912-4.791c5.082,0,9.268,0.395,12.551,1.181
		c3.283,0.788,7.209,1.936,11.775,3.442s7.682,2.26,9.348,2.26c3.238,0,5.826-2.294,7.76-6.883h3.846L637.167,41.272z"/>
	<path fill="#FFFFFF" d="M663.684,20.488c0-5.488-0.428-8.884-1.281-10.189c-0.855-1.303-3.082-1.958-6.682-1.958h-6.408V5.575
		c9.4-1.708,19.545-4.385,30.432-8.031v113.369c0,4.365,0.969,7.435,2.9,9.211c1.936,1.778,5.76,2.936,11.475,3.476v2.497h-44.807
		V123.6c5.711-0.54,9.535-1.697,11.469-3.476c1.936-1.776,2.902-4.846,2.902-9.211V20.488z"/>
	<path fill="#FFFFFF" d="M776.715,103.693c0,3.645,0.236,6.321,0.709,8.029c0.473,1.712,1.52,2.969,3.139,3.779
		c1.619,0.81,4.207,1.216,7.76,1.216v2.767c-3.373,0.854-8.143,2.294-14.307,4.318c-6.162,2.023-10.234,3.351-12.213,3.982v-15.793
		l-4.115,4.186c-6.885,7.737-14.916,11.607-24.092,11.607c-7.289,0-12.787-2.352-16.5-7.053c-3.711-4.701-5.566-11.212-5.566-19.537
		v-43.39c0-5.757-0.686-9.448-2.059-11.067c-1.373-1.62-4.646-2.43-9.818-2.43v-2.767h27.869v59.113
		c0,10.89,4.791,16.333,14.373,16.333c4.859,0,9.65-2.026,14.375-6.075c1.979-1.574,3.215-3.124,3.709-4.656
		c0.496-1.528,0.744-4.318,0.744-8.368V58.346c0-6.073-0.766-9.896-2.295-11.472c-1.531-1.574-5.467-2.43-11.809-2.565v-2.767
		h30.096V103.693z"/>
	<path fill="#FFFFFF" d="M806.071,20.488c0-4.858-0.406-7.917-1.217-9.177c-0.809-1.258-2.52-1.89-5.127-1.89h-5.803V5.575
		c9.986-2.429,15.406-3.801,16.262-4.115l11.877-3.916v57.224c2.744-4.767,6.5-8.491,11.27-11.167
		c4.768-2.676,10.055-4.015,15.857-4.015c6.793,0,12.619,1.98,17.479,5.939c4.857,3.959,8.545,9.098,11.066,15.42
		c2.52,6.321,3.779,12.833,3.779,19.535c0,8.098-1.867,15.791-5.6,23.079c-3.734,7.287-8.908,13.148-15.523,17.579
		c-6.611,4.432-14.035,6.647-22.268,6.647c-12.371,0-22.225-2.769-29.557-8.301c-1.666-1.664-2.496-3.689-2.496-6.073V20.488z
		 M822.063,110.037c0,3.06,0.359,4.972,1.08,5.733c0.719,0.769,2.766,2.004,6.141,3.714c3.734,1.664,7.514,2.495,11.338,2.495
		c8.592,0,14.834-3.26,18.727-9.783c3.889-6.523,5.836-14.329,5.836-23.418c0-9.58-1.889-18.196-5.668-25.844
		c-3.779-7.647-9.988-11.472-18.625-11.472c-6.436,0-11.182,1.563-14.24,4.69c-3.059,3.127-4.588,7.007-4.588,11.641V110.037z"/>
</g>
</svg>
