<?xml version="1.0" encoding="utf-8"?>
<!-- Generator: Adobe Illustrator 16.0.0, SVG Export Plug-In . SVG Version: 6.00 Build 0)  -->
<!DOCTYPE svg PUBLIC "-//W3C//DTD SVG 1.1//EN" "http://www.w3.org/Graphics/SVG/1.1/DTD/svg11.dtd">
<svg version="1.1" id="_x32_" xmlns="http://www.w3.org/2000/svg" xmlns:xlink="http://www.w3.org/1999/xlink" x="0px" y="0px"
	 width="1000px" height="1000px" viewBox="0 0 1000 1000" enable-background="new 0 0 1000 1000" xml:space="preserve">
<g>
	<path fill="#FFFFFF" d="M997.551,215.548c-4.156-21.004-13.525-40.855-27.199-57.545c-2.775-3.504-5.682-6.621-8.855-9.783
		c-24.324-24.453-58.16-38.479-92.834-38.479H131.336c-35.061,0-68.035,13.672-92.85,38.492c-3.141,3.133-6.053,6.281-8.936,9.896
		c-13.613,16.619-22.943,36.443-27,57.477C0.856,223.866,0,232.425,0,241.083v517.846c0,18.017,3.66,35.56,10.916,52.236
		c6.279,14.811,15.807,28.852,27.563,40.602c2.961,2.947,5.902,5.666,9.043,8.316c23.504,19.465,53.266,30.176,83.814,30.176H868.66
		c30.746,0,60.479-10.752,83.92-30.391c3.133-2.535,6.037-5.197,8.941-8.103c11.363-11.352,20.395-24.395,26.887-38.776l0.855-2.051
		C996.385,794.577,1000,777.09,1000,758.93V241.083C1000,232.538,999.176,223.923,997.551,215.548z M68.015,193.561
		c1.857-2.719,4.229-5.51,7.254-8.559c15.018-15.01,34.934-23.27,56.066-23.27h737.324c21.318,0,41.24,8.273,56.092,23.299
		c2.564,2.592,5.014,5.469,7.15,8.344l5.639,7.578l-393.555,343c-12.133,10.638-27.754,16.49-43.99,16.49
		c-16.076,0-31.685-5.841-43.961-16.478L62.872,201.051L68.015,193.561z M52.256,763.501c-0.213-1.41-0.262-2.977-0.262-4.572
		V251.805l305.41,266.428L55.077,781.829L52.256,763.501z M908.006,827.812c-11.82,6.819-25.434,10.438-39.346,10.438H131.336
		c-13.92,0-27.527-3.617-39.34-10.438l-12.359-7.164l312.375-272.226l34.234,29.777c20.535,17.828,46.723,27.655,73.752,27.655
		c27.128,0,53.359-9.827,73.88-27.655l34.221-29.79l312.27,272.254L908.006,827.812z M947.992,758.928
		c0,1.568-0.029,3.119-0.227,4.5l-2.707,18.5L642.602,518.376l305.393-266.441v506.993H947.992z"/>
</g>
</svg>
