<?xml version="1.0" encoding="utf-8"?>
<!-- Generator: Adobe Illustrator 16.0.0, SVG Export Plug-In . SVG Version: 6.00 Build 0)  -->
<!DOCTYPE svg PUBLIC "-//W3C//DTD SVG 1.1//EN" "http://www.w3.org/Graphics/SVG/1.1/DTD/svg11.dtd">
<svg version="1.1" id="レイヤー_1" xmlns="http://www.w3.org/2000/svg" xmlns:xlink="http://www.w3.org/1999/xlink" x="0px"
	 y="0px" width="1000px" height="1000px" viewBox="0 0 1000 1000" enable-background="new 0 0 1000 1000" xml:space="preserve">
<g>
	<path fill="#FFFFFF" d="M500,7.058c-183.317,0-331.882,148.566-331.882,331.881c0,187.091,92.731,226.951,195.225,351.404
		C485.936,839.208,500,992.942,500,992.942s14.064-153.734,136.656-302.598C739.15,565.889,831.881,526.029,831.881,338.94
		C831.881,155.624,683.316,7.058,500,7.058z M500,453.635c-63.346,0-114.694-51.351-114.694-114.694
		c0-63.343,51.351-114.693,114.694-114.693c63.343,0,114.693,51.351,114.693,114.693C614.693,402.284,563.344,453.635,500,453.635z"
		/>
</g>
</svg>
