<?xml version="1.0" encoding="utf-8"?>
<!-- Generator: Adobe Illustrator 16.0.0, SVG Export Plug-In . SVG Version: 6.00 Build 0)  -->
<!DOCTYPE svg PUBLIC "-//W3C//DTD SVG 1.1//EN" "http://www.w3.org/Graphics/SVG/1.1/DTD/svg11.dtd">
<svg version="1.1" id="レイヤー_1" xmlns="http://www.w3.org/2000/svg" xmlns:xlink="http://www.w3.org/1999/xlink" x="0px"
	 y="0px" width="1000px" height="1000px" viewBox="0 0 1000 1000" enable-background="new 0 0 1000 1000" xml:space="preserve">
<g>
	<path fill="#FFFFFF" d="M928.213,778.311c-37.325-35.53-157.062-108.09-187.277-117.896c-30.2-9.828-70.085,16.716-83.586,52.806
		c-13.521,36.091-32.494,30.898-32.494,30.898s-71.819-33.694-195.749-180.749C305.179,416.316,284.149,339.821,284.149,339.821
		s-1.898-19.593,35.988-26.802c37.826-7.191,70.762-41.981,66.188-73.419c-4.513-31.437-55.741-161.753-84.421-204.534
		c-28.738-42.76-92.81-27.58-107.39-18.832C179.914,24.981,27.208,104.35,55.969,277.527
		c28.8,173.18,110.425,316.836,204.234,428.165c93.81,111.324,221.551,216.158,387.361,273.879
		c165.768,57.72,269.9-79.33,280.985-92.231C939.637,874.457,965.46,813.882,928.213,778.311z"/>
</g>
</svg>
