<?xml version="1.0" encoding="utf-8"?>
<!-- Generator: Adobe Illustrator 16.0.0, SVG Export Plug-In . SVG Version: 6.00 Build 0)  -->
<!DOCTYPE svg PUBLIC "-//W3C//DTD SVG 1.1//EN" "http://www.w3.org/Graphics/SVG/1.1/DTD/svg11.dtd">
<svg version="1.1" id="レイヤー_1" xmlns="http://www.w3.org/2000/svg" xmlns:xlink="http://www.w3.org/1999/xlink" x="0px"
	 y="0px" width="3836.812px" height="586.847px" viewBox="-777.983 46.022 3836.812 586.847"
	 enable-background="new -777.983 46.022 3836.812 586.847" xml:space="preserve">
<g>
	<path fill="#FFFFFF" d="M-294.292,210.953c-11.244-25.654-21.894-44.853-31.946-57.6c-10.059-12.747-23.793-19.123-41.209-19.123
		v-11.635h176.237v11.635c-20.111,0-33.414,1.983-39.904,5.936c-6.492,3.962-9.737,10.058-9.737,18.29
		c0,9.977,10.054,36.267,30.165,78.857l97.145,216.854l94.53-236.331c10.291-24.382,15.44-42.517,15.44-54.387
		c0-19.485-16.234-29.219-48.693-29.219v-11.635H85.021v11.635c-14.729,0.477-26.051,4.671-33.965,12.585
		c-7.919,7.925-15.043,19.639-21.375,35.155C11.944,224.722-6.106,269.14-24.476,315.218
		c-18.369,46.078-36.815,92.752-55.339,140.014c-18.528,47.27-33.334,85.551-44.417,114.845h-9.739L-294.292,210.953z"/>
	<path fill="#FFFFFF" d="M162.688,348.232c0-19.952-1.424-33.525-4.276-40.732c-2.851-7.205-8.87-10.807-18.051-10.807
		c-5.703,0-15.124,1.587-28.264,4.75v-8.552l107.119-36.102v251.054c0,15.202,3.361,25.976,10.095,32.301
		c6.728,6.337,19.91,10.45,39.545,12.351v8.789H112.098v-8.789c20.107-1.9,33.568-5.973,40.377-12.231
		c6.807-6.252,10.213-17.057,10.213-32.42V348.232z M152.001,143.017c0-9.177,3.207-17.173,9.617-23.986
		c6.417-6.809,14.291-10.217,23.635-10.217c9.975,0,18.29,3.331,24.941,9.98c6.649,6.651,9.973,14.722,9.973,24.223
		c0,8.873-3.444,16.589-10.331,23.161c-6.889,6.574-15.082,9.857-24.583,9.857c-9.026,0-16.827-3.362-23.394-10.096
		C155.285,159.209,152.001,151.566,152.001,143.017z"/>
	<path fill="#FFFFFF" d="M583.092,210.953c-11.245-25.654-21.893-44.853-31.942-57.6c-10.062-12.747-23.797-19.123-41.213-19.123
		v-11.635h176.238v11.635c-20.11,0-33.412,1.983-39.902,5.936c-6.496,3.962-9.739,10.058-9.739,18.29
		c0,9.977,10.054,36.267,30.165,78.857l97.145,216.854l94.53-236.331c10.295-24.382,15.44-42.517,15.44-54.387
		c0-19.485-16.232-29.219-48.689-29.219v-11.635h137.284v11.635c-14.727,0.477-26.049,4.671-33.97,12.585
		c-7.918,7.925-15.045,19.639-21.372,35.155c-17.736,42.752-35.789,87.169-54.156,133.248
		c-18.369,46.078-36.814,92.752-55.339,140.014c-18.529,47.27-33.333,85.551-44.416,114.845h-9.741L583.092,210.953z"/>
	<path fill="#FFFFFF" d="M1040.078,348.232c0-19.952-1.428-33.525-4.276-40.732c-2.849-7.205-8.869-10.807-18.052-10.807
		c-5.699,0-15.121,1.587-28.261,4.75v-8.552l107.12-36.102v251.054c0,15.202,3.358,25.976,10.093,32.301
		c6.729,6.337,19.906,10.45,39.55,12.351v8.789H989.489v-8.789c20.101-1.9,33.564-5.973,40.373-12.231
		c6.808-6.252,10.216-17.057,10.216-32.42V348.232z M1029.39,143.017c0-9.177,3.205-17.173,9.614-23.986
		c6.417-6.809,14.29-10.217,23.638-10.217c9.972,0,18.286,3.331,24.938,9.98c6.65,6.651,9.975,14.722,9.975,24.223
		c0,8.873-3.444,16.589-10.329,23.161c-6.892,6.574-15.083,9.857-24.583,9.857c-9.029,0-16.83-3.362-23.396-10.096
		C1032.675,159.209,1029.39,151.566,1029.39,143.017z"/>
	<path fill="#FFFFFF" d="M1788.258,262.724h-14.733c-6.496-24.701-16.313-46.349-29.457-64.958
		c-13.144-18.607-29.451-33.049-48.926-43.35c-19.475-10.289-41.652-15.434-66.504-15.434c-52.101,0-91.052,19.083-116.858,57.238
		c-25.808,38.164-38.717,88.835-38.717,152.011c0,32.466,5.706,63.419,17.104,92.87c11.396,29.454,29.057,53.438,52.967,71.969
		c23.902,18.52,53.044,27.789,87.409,27.789c31.506,0,59.335-5.303,83.483-15.92c24.143-10.603,47.944-27.386,71.378-50.349
		l11.633,12.831c-20.268,24.854-46.321,44.852-78.135,59.965c-31.837,15.124-63.507,22.689-95.006,22.689
		c-43.558,0-82.66-8.989-117.341-26.964c-34.675-17.967-61.912-44.18-81.71-78.612c-19.791-34.442-29.685-75.178-29.685-122.205
		c0-32.778,5.536-63.18,16.624-91.206c11.088-28.025,26.913-52.452,47.51-73.275c20.581-20.819,44.725-36.851,72.443-48.099
		c27.703-11.239,58.103-16.861,91.203-16.861c17.887,0,32.619,1.388,44.173,4.155c11.557,2.771,25.375,6.813,41.448,12.117
		c16.07,5.303,27.036,7.954,32.9,7.954c11.397,0,20.508-8.074,27.313-24.226h13.535L1788.258,262.724z"/>
	<path fill="#FFFFFF" d="M1881.591,189.57c0-19.314-1.505-31.268-4.509-35.863c-3.012-4.587-10.849-6.891-23.518-6.891h-22.556
		v-9.735c33.087-6.014,68.792-15.436,107.111-28.267v399.029c0,15.363,3.409,26.168,10.208,32.42
		c6.813,6.259,20.271,10.331,40.388,12.231v8.789h-157.707v-8.789c20.101-1.9,33.562-5.973,40.367-12.231
		c6.813-6.252,10.215-17.057,10.215-32.42V189.57z"/>
	<path fill="#FFFFFF" d="M2279.431,482.431c0,12.827,0.831,22.249,2.495,28.261c1.664,6.025,5.349,10.449,11.048,13.302
		c5.698,2.85,14.808,4.28,27.31,4.28v9.737c-11.871,3.008-28.658,8.074-50.354,15.198c-21.689,7.124-36.022,11.795-42.987,14.019
		V511.64l-14.482,14.732c-24.233,27.234-52.501,40.855-84.798,40.855c-25.655,0-45.006-8.277-58.075-24.823
		c-13.061-16.549-19.592-39.462-19.592-68.767V320.919c0-20.264-2.414-33.255-7.245-38.953c-4.832-5.701-16.355-8.551-34.558-8.551
		v-9.741h98.091v208.063c0,38.329,16.863,57.487,50.589,57.487c17.104,0,33.967-7.132,50.597-21.382
		c6.964-5.541,11.314-10.995,13.055-16.388c1.746-5.38,2.618-15.201,2.618-29.455v-139.18c0-21.377-2.693-34.835-8.077-40.379
		c-5.389-5.539-19.241-8.551-41.564-9.026v-9.741h105.931V482.431z"/>
	<path fill="#FFFFFF" d="M2382.754,189.57c0-17.1-1.43-27.865-4.283-32.301c-2.846-4.427-8.868-6.651-18.045-6.651h-20.424V137.08
		c35.148-8.548,54.225-13.38,57.235-14.485l41.804-13.782v201.413c9.658-16.776,22.878-29.885,39.666-39.306
		c16.78-9.417,35.389-14.132,55.813-14.132c23.911,0,44.417,6.971,61.521,20.904c17.097,13.935,30.076,32.023,38.951,54.272
		c8.866,22.25,13.301,45.169,13.301,68.759c0,28.502-6.572,55.58-19.708,81.232c-13.145,25.649-31.356,46.279-54.639,61.873
		c-23.271,15.6-49.399,23.398-78.377,23.398c-43.542,0-78.222-9.746-104.03-29.217c-5.864-5.856-8.785-12.986-8.785-21.376V189.57z
		 M2439.042,504.759c0,10.77,1.266,17.499,3.802,20.181c2.529,2.704,9.734,7.054,21.614,13.071
		c13.143,5.858,26.446,8.783,39.906,8.783c30.239,0,52.211-11.475,65.912-34.437c13.686-22.96,20.541-50.433,20.541-82.425
		c0-33.719-6.646-64.045-19.951-90.961c-13.303-26.917-35.155-40.38-65.553-40.38c-22.652,0-39.357,5.503-50.122,16.507
		c-10.767,11.009-16.149,24.663-16.149,40.974V504.759z"/>
</g>
</svg>
